<svg xmlns="http://www.w3.org/2000/svg" viewBox="0 0 626.951 637.038"><defs><linearGradient id="linear-gradient" x1=".677" x2=".526" y1="-.778" y2=".09" gradientUnits="objectBoundingBox"><stop offset="0" stop-color="#fff"/><stop offset=".992" stop-color="#e5e5e5" stop-opacity="0"/></linearGradient><style>.cls-2{fill:#fff}.cls-3{fill:#d9e7ea}.cls-4{fill:#a0cfef}.cls-5{opacity:.11}.cls-17,.cls-6{fill:#282f56}.cls-9{fill:#f7d3a9}.cls-10{fill:#dee3ff}.cls-11,.cls-16{fill:#343b73}.cls-12{fill:#d8f6ff}.cls-13{fill:#a0ced8}.cls-14{fill:#c44}.cls-15{fill:#222742}.cls-16{opacity:.14}.cls-17{opacity:.35}.cls-18{fill:#fbc4b6}.cls-19{fill:#f9f9f9}.cls-20{fill:#1661a5}</style></defs><g id="Group_179" data-name="Group 179" transform="translate(-344.684)"><path id="Path_500" fill="url(#linear-gradient)" d="M963.693 329.6 808.906 507.432 710.4 492.868l195.474-155.605-22.292 1.811-232.493 168.358H520.014l359.11-167.8-23.963 1.811-404.554 137.473-95.892-26.374L808.906 329.6z" data-name="Path 500" opacity=".56" transform="translate(0 129.607)"/><g id="Group_181" data-name="Group 181" transform="translate(785.711 105.049)"><ellipse id="Ellipse_19" cx="92.371" cy="89.027" class="cls-2" data-name="Ellipse 19" rx="92.371" ry="89.027" transform="translate(1.182)"/><path id="Path_501" d="M580.6 395.386h154.787L709.473 199.22l-25.5-36.92-67.571 21.316z" class="cls-2" data-name="Path 501" transform="translate(-557.405 -41.229)"/><g id="Group_180" data-name="Group 180" transform="translate(0 .318)"><g id="Group_179-2" data-name="Group 179"><path id="Path_502" d="M590.63 147.618c11.424-43.608 54.614-70.776 99.894-64.924a82.356 82.356 0 0 0-11.7-3.9c-49.324-12.958-99.48 15.046-112.019 62.555S584.221 237.9 633.541 251a93.058 93.058 0 0 0 12.121 2.368c-42.215-17.28-66.457-62.142-55.032-105.75z" class="cls-3" data-name="Path 502" transform="translate(-563.951 -75.629)"/></g><path id="Path_503" d="M639.115 205.656 617.242 381.9H580.6l29.258-185.3z" class="cls-3" data-name="Path 503" transform="translate(-557.405 -28.06)"/><path id="Path_504" d="M602.229 196.6h31.208l-2.647 14.211H600z" class="cls-3" data-name="Path 504" transform="translate(-549.776 -28.06)"/><path id="Path_505" d="M642.01 207.414s-38.035-7.8-51.828-38.314L578.2 179.828l43.469 32.462z" class="cls-3" data-name="Path 505" transform="translate(-558.348 -38.873)"/></g></g><g id="Group_188" data-name="Group 188" transform="translate(375.335 213.441)"><g id="Group_182" data-name="Group 182" transform="translate(.696)"><path id="Path_506" d="m341.7 188.015 355.969-1.115v31.9l-10.589.139 2.369 56.565-24.521.139.975-17.137-12.818.139v17H637.2l-.139-19.087h-11.7l.139 25.5-14.907.139-.279-68.268-268.474.836z" class="cls-4" data-name="Path 506" transform="translate(-241.666 -139.948)"/><path id="Path_507" d="M340.006 153.2a64.716 64.716 0 1 0 64.924 64.506 64.633 64.633 0 0 0-64.924-64.506zM316.6 234.564a16.579 16.579 0 1 1 16.579-16.579 16.53 16.53 0 0 1-16.579 16.579z" class="cls-4" data-name="Path 507" transform="translate(-267.698 -153.2)"/><path id="Path_508" d="M337.5 187.975 693.469 187v31.766l-10.588.139 2.229 56.565-24.521.139 1.115-17.137-12.818.139v17H633l-.139-19.087h-11.7l.139 25.635h-14.908l-.279-68.268-268.474.836z" class="cls-2" data-name="Path 508" transform="translate(-243.318 -139.909)"/><path id="Path_509" d="M334.406 153.2a64.716 64.716 0 1 0 64.924 64.506 64.633 64.633 0 0 0-64.924-64.506zM311 234.564a16.579 16.579 0 1 1 16.579-16.579A16.53 16.53 0 0 1 311 234.564z" class="cls-2" data-name="Path 509" transform="translate(-269.9 -153.2)"/><path id="Path_510" d="M334.406 153.2a64.716 64.716 0 1 0 64.924 64.506 64.633 64.633 0 0 0-64.924-64.506zM311 234.564a16.579 16.579 0 1 1 16.579-16.579A16.53 16.53 0 0 1 311 234.564z" class="cls-2" data-name="Path 510" transform="translate(-269.9 -153.2)"/><path id="Path_511" d="M594.841 187s-14.768 12.4.139 31.9c-.139-.134 13.097-18.8-.139-31.9z" class="cls-4" data-name="Path 511" transform="translate(-144.69 -139.909)"/></g><g id="Group_183" class="cls-5" data-name="Group 183" transform="translate(429.252 120.967)"><path id="Path_512" d="M577.5 255.176a14.32 14.32 0 0 1 5.852-11.424 26.611 26.611 0 0 1 3.9-2.09 16.9 16.9 0 0 1 4.458-1.533 6.7 6.7 0 0 1 4.6.836l.418 13.654z" class="cls-6" data-name="Path 512" transform="translate(-577.5 -240.025)"/></g><g id="Group_184" class="cls-5" data-name="Group 184" transform="translate(448.972 47.541)"><path id="Path_514" d="M598.266 217.663c-1.951-2.229-4.04-4.458-5.016-7.105a27.164 27.164 0 0 1-1.115-5.852c-.418-3.9-.836-7.941 0-11.842a7.389 7.389 0 0 1 2.368-4.737 3.627 3.627 0 0 1 4.876.279z" class="cls-6" data-name="Path 514" transform="translate(-591.654 -187.323)"/></g><g id="Group_185" class="cls-5" data-name="Group 185" transform="translate(37.611 61.018)"><path id="Path_515" d="M319.251 197c.975-.139 2.09 2.09 2.508 5.852a22.366 22.366 0 0 1-.279 6.687 13.961 13.961 0 0 1-4.737 8.22 22.965 22.965 0 0 1-14.35 5.155c-3.9-.139-6.13-1.254-5.991-2.229 0-.975 2.229-1.672 5.294-2.786a38.438 38.438 0 0 0 5.155-2.229 27.74 27.74 0 0 0 5.434-3.483 10.711 10.711 0 0 0 3.065-4.458 55.108 55.108 0 0 0 1.533-5.434c.696-3.064 1.392-5.154 2.368-5.295z" class="cls-6" data-name="Path 515" transform="translate(-296.396 -196.996)"/></g><g id="Group_186" data-name="Group 186" opacity=".12" transform="translate(239.634 51.576)"><path id="Path_516" d="M445.858 190.75a18.181 18.181 0 0 1 15.883 3.622c5.294 4.458 7.941 11.842 13.932 15.186 5.712 3.065 12.678 1.672 18.669-.7s11.842-5.712 18.251-6.27 13.793 2.786 15.047 9.056c-28.143 1.672-58.1 1.115-86.241 2.786" class="cls-6" data-name="Path 516" transform="translate(-441.4 -190.219)"/></g><g id="Group_187" class="cls-5" data-name="Group 187" transform="translate(0 49.321)"><path id="Path_517" d="M271.629 188.6c7.663.279 10.728 5.434 14.768 11.982s5.434 14.49 5.155 22.152c-.279 4.6-.975 9.335-.418 13.932 1.393 10.171 10.589 18.809 20.759 19.505a37.963 37.963 0 0 0 9.753-.836c4.18-.7 8.22-1.254 12.4-1.951 5.852-.836 12.539-1.672 16.44 4.876a17.148 17.148 0 0 1 1.951 6.409c.279 4.04 1.393.139.279 4.04l-21.456-.557a63.793 63.793 0 0 1-61.86-57.957z" class="cls-6" data-name="Path 517" transform="translate(-269.4 -188.6)"/></g></g><g id="Group_209" data-name="Group 209" transform="translate(345.602 264.339)"><path id="Path_518" d="M313.175 248.549a1.323 1.323 0 0 1 1.533-.557 4.185 4.185 0 0 1 1.533.836 13.647 13.647 0 0 0 15.465-.557c-4.18-1.672-8.5-3.2-12.818-4.458a5.7 5.7 0 0 0 3.9-2.508c.139-.139.279-.418.139-.557a.512.512 0 0 0-.418-.139 6.35 6.35 0 0 0-3.2.7c-2.09.836-4.18 1.811-6.27 2.647a3.042 3.042 0 0 0-.7.418 2.065 2.065 0 0 0-.139.975 20.935 20.935 0 0 1 .279 2.786" class="cls-9" data-name="Path 518" transform="translate(-222.837 -169.737)"/><path id="Path_519" d="M270.793 363.479 269.4 371.7l4.319-.279 1.951-8.22z" class="cls-10" data-name="Path 519" transform="translate(-239.667 -121.52)"/><path id="Path_520" d="M294.557 362.036 294 370.4l4.18-.836 1.254-8.359z" class="cls-10" data-name="Path 520" transform="translate(-229.994 -122.307)"/><path id="Path_521" d="m280.119 196.3 5.573 14.908a6.341 6.341 0 0 1-3.762 8.22l-1.951.7.836 10.867-15.186 1.115-2.229-30.79z" class="cls-9" data-name="Path 521" transform="translate(-242.027 -187.149)"/><path id="Path_522" d="M281.63 190.105s-3.065-1.951-6.827 3.065-12.539 1.672-15.325 7.941c-2.926 6.27-.7 13.654 3.2 19.227l2.786 4.319 7.8-.557s3.344-7.523 1.951-9.613c0 0-8.638-1.254-5.991-5.852s6.827 1.951 6.827 1.951l2.229-.279-2.647-8.638s7.663-1.533 8.638-6.27c.703-5.015-2.641-5.294-2.641-5.294z" class="cls-11" data-name="Path 522" transform="translate(-244.095 -189.732)"/><path id="Path_523" d="m255.9 286.834 19.644 46.116a27.923 27.923 0 0 1 2.09 13.514l-5.016 57.958 10.449-.7s14.211-51.967 14.35-65.2c0-6.27-7.384-33.3-7.384-33.3s12.4 20.48 12.539 31.766 4.458 65.064 4.458 65.064l8.359-.557s13.793-58.1.557-90.7c-11.564-28.561-17.555-45.7-17.555-45.7z" class="cls-11" data-name="Path 523" transform="translate(-244.976 -160.096)"/><path id="Path_524" d="M270.547 217.4a35.51 35.51 0 0 0-22.431 32.044c-.975 24.8 10.867 56.286 10.867 56.286l43.19-16.719-1.254-13.654-7.663-46.812a6.713 6.713 0 0 0-4.458-5.155z" class="cls-12" data-name="Path 524" transform="translate(-248.059 -178.852)"/><g id="Group_189" data-name="Group 189" transform="translate(39.346 47.325)"><path id="Path_525" d="M285.635 284.863a.814.814 0 0 1-.139-.557c-.139-.557-.139-1.115-.279-1.811-.279-1.811-.7-4.04-1.115-6.548-.975-5.991-2.09-13.375-3.344-21.595s-2.368-15.6-3.2-21.595c-.279-2.508-.7-4.737-.975-6.548-.139-.7-.139-1.254-.279-1.811v-.7a.814.814 0 0 1 .139.557c.139.557.139 1.115.279 1.811.279 1.811.7 4.04 1.115 6.548.975 5.852 2.09 13.375 3.344 21.595s2.368 15.6 3.2 21.595c.279 2.508.7 4.737.975 6.548.139.7.139 1.254.279 1.811z" class="cls-13" data-name="Path 525" transform="translate(-276.3 -223.7)"/></g><path id="Path_526" d="m265.262 217.4 16.3 4.458-.557 4.458-19.505-7.244z" class="cls-13" data-name="Path 526" transform="translate(-242.774 -178.852)"/><path id="Path_527" d="m275.839 221.386 3.065 4.18-.139-3.483-3.065-3.483z" class="cls-13" data-name="Path 527" transform="translate(-237.19 -178.38)"/><path id="Path_528" d="m276.057 220.7-.557 4.319 2.926 3.9.418-4.458-2.508-3.483" class="cls-14" data-name="Path 528" transform="translate(-237.269 -177.555)"/><path id="Path_529" d="M285.833 226.672s4.458 29.4-8.359 34.831-17.555 6.409-17.555 6.409l-4.319 8.22 10.31 1.533s29.954-7.105 28.561-26.193C293.078 232.523 286.39 225 286.39 225z" class="cls-14" data-name="Path 529" transform="translate(-245.094 -175.864)"/><path id="Path_530" d="m256.9 242.409 39.568 18.809 38.592-2.786-.836-10.728-31.626-.418L266.1 223.6" class="cls-12" data-name="Path 530" transform="translate(-244.583 -176.414)"/><g id="Group_190" data-name="Group 190" transform="translate(12.457 67.666)"><path id="Path_531" d="M257 238.3s.557.279 1.533.7 2.369 1.115 4.18 1.951c3.483 1.533 8.5 3.483 14.072 5.573s10.589 4.18 14.072 5.852q2.717 1.254 4.18 2.09c.975.557 1.393.836 1.393.836s-.557-.279-1.533-.7-2.368-1.115-4.18-1.951c-3.483-1.533-8.5-3.483-14.072-5.573s-10.589-4.18-14.072-5.852q-2.717-1.254-4.18-2.09c-.836-.418-1.393-.697-1.393-.836z" class="cls-13" data-name="Path 531" transform="translate(-257 -238.3)"/></g><g id="Group_191" data-name="Group 191" transform="translate(26.528 50.215)"><path id="Path_532" d="M296.776 245.594a10.951 10.951 0 0 1-1.254-.557c-.836-.418-1.951-1.115-3.344-1.951-2.786-1.672-6.409-4.18-10.449-7.105s-7.663-5.434-10.31-7.245c-1.115-.7-2.229-1.393-3.2-2.09-.7-.418-1.115-.7-1.115-.836s.418.139 1.254.557 1.951 1.115 3.344 1.951c2.786 1.672 6.409 4.18 10.449 7.105s7.663 5.434 10.31 7.245c1.115.7 2.229 1.393 3.2 2.09.697.557 1.115.836 1.115.836z" class="cls-13" data-name="Path 532" transform="translate(-267.1 -225.774)"/></g><g id="Group_192" data-name="Group 192" transform="translate(83.26 71.288)"><path id="Path_533" d="M309.325 251.906a31.488 31.488 0 0 1-.975-5.434c-.418-3.065-.7-5.573-.418-5.573a31.491 31.491 0 0 1 .975 5.434 26.462 26.462 0 0 1 .418 5.573z" class="cls-13" data-name="Path 533" transform="translate(-307.819 -240.9)"/></g><g id="Group_193" data-name="Group 193" transform="translate(84.765 77.924)"><path id="Path_534" d="M314.334 245.715a5.711 5.711 0 0 1-2.647.975 6.377 6.377 0 0 1-2.786.139 9.784 9.784 0 0 1 2.647-.7 6.609 6.609 0 0 1 2.786-.414z" class="cls-13" data-name="Path 534" transform="translate(-308.9 -245.662)"/></g><path id="Path_535" d="M269.687 369.479a9.04 9.04 0 0 0-.975 4.6l22.57-1.672s1.951-4.6-17.137-3.344z" class="cls-11" data-name="Path 535" transform="translate(-239.954 -119.301)"/><path id="Path_536" d="M294.287 367.62a9.04 9.04 0 0 0-.975 4.6l23.963-1.672s.7-4.18-18.669-3.2z" class="cls-11" data-name="Path 536" transform="translate(-230.281 -119.95)"/><g id="Group_194" data-name="Group 194" transform="translate(36.678 248.62)"><path id="Path_537" d="M278.028 368.207c.139.139-.836.7-1.811 1.672-.975.836-1.672 1.672-1.811 1.533s.418-1.115 1.533-1.951c.835-.975 1.95-1.393 2.089-1.254z" class="cls-15" data-name="Path 537" transform="translate(-274.385 -368.181)"/></g><g id="Group_195" data-name="Group 195" transform="translate(38.632 249.037)"><path id="Path_538" d="M279.288 368.508c.139.139-.7.7-1.672 1.533-.975.7-1.811 1.393-1.811 1.254-.139-.139.557-.975 1.533-1.811.975-.698 1.95-1.116 1.95-.976z" class="cls-15" data-name="Path 538" transform="translate(-275.787 -368.481)"/></g><g id="Group_196" data-name="Group 196" transform="translate(40.997 249.028)"><path id="Path_539" d="M281.128 368.51a14.294 14.294 0 0 1-1.811 1.254c-.975.7-1.672 1.393-1.811 1.254s.418-.975 1.533-1.811a3.98 3.98 0 0 1 2.089-.697z" class="cls-15" data-name="Path 539" transform="translate(-277.485 -368.474)"/></g><g id="Group_197" data-name="Group 197" transform="translate(33.612 246.528)"><path id="Path_540" d="M275.271 371.027a6.067 6.067 0 0 1-.418-2.508 2.07 2.07 0 0 1 .279-1.254 1.088 1.088 0 0 1 .557-.557.686.686 0 0 1 .836.557 5.989 5.989 0 0 1-.279 1.672l-.279.836-.139.418a.431.431 0 0 1-.139.279c-.139.139-.279.279-.418.139a6.962 6.962 0 0 1-2.926-1.811c-.139-.279-.279-.7 0-.975s.557-.418.836-.279a1.445 1.445 0 0 1 1.115.836 3.956 3.956 0 0 1 .7 2.369 4.026 4.026 0 0 0-.975-2.229 1.146 1.146 0 0 0-.836-.557c-.418 0-.557.279-.279.557a7.585 7.585 0 0 0 2.508 1.533c-.139.279 0-.279.139-.418l.279-.836a8.017 8.017 0 0 0 .279-1.393c0-.418-.279-.139-.557.139a2.624 2.624 0 0 0-.279 1.115 11.341 11.341 0 0 0-.004 2.367z" class="cls-15" data-name="Path 540" transform="translate(-272.185 -366.68)"/></g><g id="Group_198" data-name="Group 198" transform="translate(71.358 245.72)"><path id="Path_541" d="M302.792 366.239a.136.136 0 0 1 .139-.139l.139.139a20.642 20.642 0 0 0-1.951 1.533c-1.115.975-1.672 2.09-1.811 1.95a3.115 3.115 0 0 1 1.393-2.368 4.8 4.8 0 0 1 2.368-1.254l.139.139z" class="cls-15" data-name="Path 541" transform="translate(-299.277 -366.1)"/></g><g id="Group_199" data-name="Group 199" transform="translate(73.308 246.208)"><path id="Path_542" d="M304.053 366.519c0 .139-.975.557-1.811 1.254-.975.836-1.393 1.672-1.533 1.533-.139 0 .139-1.115 1.254-2.09a2.266 2.266 0 0 1 2.09-.697z" class="cls-15" data-name="Path 542" transform="translate(-300.676 -366.45)"/></g><g id="Group_200" data-name="Group 200" transform="translate(75.265 246.507)"><path id="Path_543" d="M305.173 366.714a6.79 6.79 0 0 1-1.533 1.115c-.836.557-1.393 1.254-1.533 1.254s.279-.975 1.115-1.672c.978-.697 1.951-.837 1.951-.697z" class="cls-15" data-name="Path 543" transform="translate(-302.081 -366.665)"/></g><g id="Group_201" data-name="Group 201" transform="translate(67.663 244.305)"><path id="Path_544" d="M299.655 368.868a1.04 1.04 0 0 1-.418-.418 5.741 5.741 0 0 1-.139-1.672 3.068 3.068 0 0 1 .139-1.115c.139-.139.139-.557.557-.557.418-.139.7.418.7.7a2.849 2.849 0 0 1 0 1.533c0 .279-.139.557-.139.836 0 .139-.139.279-.139.418a.724.724 0 0 1-.557.279 5.987 5.987 0 0 1-1.672-.279 2.223 2.223 0 0 1-1.254-.975.877.877 0 0 1 0-.836c0-.279.557-.279.557-.139l.279.139a5.9 5.9 0 0 1 .975.7c.975.975 1.393 1.811 1.254 1.811s-.557-.7-1.533-1.533c-.279-.139-.557-.418-.836-.557l-.279-.139v-.139h.139a.688.688 0 0 0 .139.418c.279.7 1.533.975 2.229 1.115.139.139.279-.7.418-.975v-1.393c0-.279-.139-.279-.139-.279-.139 0-.139.139-.139.279a2.716 2.716 0 0 0-.139 1.115 7.5 7.5 0 0 0-.139 1.533c-.003-.149.136-.009.136.13z" class="cls-15" data-name="Path 544" transform="translate(-296.625 -365.084)"/></g><g id="Group_202" data-name="Group 202" transform="translate(27.504 238.857)"><path id="Path_545" d="M279.085 361.21a27.563 27.563 0 0 1-5.573 1.115 22.867 22.867 0 0 1-5.712.557 27.563 27.563 0 0 1 5.573-1.115 37.048 37.048 0 0 1 5.712-.557z" class="cls-15" data-name="Path 545" transform="translate(-267.8 -361.174)"/></g><g id="Group_203" data-name="Group 203" transform="translate(60.384 237.721)"><path id="Path_546" d="M303.1 360.416a40.22 40.22 0 0 1-5.852.7 27.851 27.851 0 0 1-5.852.139 40.219 40.219 0 0 1 5.852-.7 46.948 46.948 0 0 1 5.852-.139z" class="cls-15" data-name="Path 546" transform="translate(-291.4 -360.359)"/></g><g id="Group_204" data-name="Group 204" transform="translate(18.022 128.267)"><path id="Path_547" d="M262.813 281.8c.139-.139 1.393 2.926.836 6.687a12.129 12.129 0 0 1-2.647 6.27 21.555 21.555 0 0 0 2.09-6.409 20.945 20.945 0 0 0-.279-6.548z" class="cls-15" data-name="Path 547" transform="translate(-260.995 -281.797)"/></g><g id="Group_205" data-name="Group 205" transform="translate(49.342 114.474)"><path id="Path_548" d="M295.074 282.768a11.437 11.437 0 0 1-2.368-.7 17.1 17.1 0 0 1-4.876-3.2 18.49 18.49 0 0 1-3.483-4.737c-.7-1.393-.975-2.229-.836-2.229.139-.139 1.533 3.344 4.737 6.548a24.667 24.667 0 0 0 6.826 4.318z" class="cls-15" data-name="Path 548" transform="translate(-283.475 -271.897)"/></g><g id="Group_206" data-name="Group 206" transform="translate(36.113 120.609)"><path id="Path_549" d="M284.6 294.83a28.573 28.573 0 0 1-2.786 1.672l-.139.139-.139-.139a70.709 70.709 0 0 1-3.9-8.359c-1.254-3.2-2.368-6.13-2.926-8.22-.279-1.115-.557-1.951-.7-2.647a.916.916 0 0 1 .279-.975 1.669 1.669 0 0 0 0 .975c.139.557.557 1.393.836 2.508.7 2.09 1.811 5.016 3.2 8.22 1.393 3.344 2.786 6.27 3.762 8.359l-.279-.139a20.382 20.382 0 0 1 2.792-1.394z" class="cls-15" data-name="Path 549" transform="translate(-273.98 -276.3)"/></g><g id="Group_207" data-name="Group 207" transform="translate(44.919 120.887)"><path id="Path_550" d="M301.616 393.809v-4.876c0-3.344.139-7.8.279-13.236.279-11.285.557-26.611.975-43.469a75.07 75.07 0 0 0-4.458-23.267 116.417 116.417 0 0 0-8.22-17.555 120.493 120.493 0 0 0-7.105-11.006q-1.254-1.672-2.09-2.926a6.806 6.806 0 0 1-.7-.975s.279.279.836.975 1.254 1.533 2.229 2.786a116.361 116.361 0 0 1 7.245 11.006 105.676 105.676 0 0 1 8.359 17.694 72.818 72.818 0 0 1 4.6 23.406c-.418 16.858-.836 32.044-1.115 43.469-.139 5.434-.279 9.892-.418 13.1 0 1.393-.139 2.647-.139 3.622a9.184 9.184 0 0 1-.278 1.252z" class="cls-15" data-name="Path 550" transform="translate(-280.3 -276.5)"/></g><g id="Group_208" data-name="Group 208" transform="translate(26.807 127.714)"><path id="Path_551" d="M273.709 393.972a6.311 6.311 0 0 1 .139-1.115c.139-.975.418-2.09.7-3.344.7-3.065 1.533-7.245 2.647-12.26a3182.414 3182.414 0 0 0 3.762-18.251c.7-3.483 1.393-7.105 2.09-10.728a105.033 105.033 0 0 0 1.672-11.564c.139-8.081-1.672-15.6-3.622-22.292A151.26 151.26 0 0 0 274.684 297c-2.09-4.876-3.9-8.777-5.294-11.424-.557-1.254-1.115-2.229-1.533-3.065a6.351 6.351 0 0 1-.557-1.115 3.09 3.09 0 0 1 .557.975c.418.836.975 1.811 1.672 3.065 1.393 2.647 3.344 6.409 5.434 11.285a180.289 180.289 0 0 1 6.548 17.415c1.951 6.687 3.762 14.35 3.622 22.431a102.863 102.863 0 0 1-1.672 11.7 516.83 516.83 0 0 1-2.09 10.728c-1.393 6.827-2.786 12.957-3.9 18.251-1.115 5.016-2.09 9.056-2.786 12.26q-.418 1.881-.836 3.344a3.856 3.856 0 0 1-.14 1.122z" class="cls-15" data-name="Path 551" transform="translate(-267.3 -281.4)"/></g><path id="Path_552" d="M257 238.3s2.786 22.292 37.756 18.809l.975-.139-.279-3.2z" class="cls-16" data-name="Path 552" transform="translate(-244.543 -170.634)"/><path id="Path_553" d="m255.6 265.121 8.638 2.368a13.584 13.584 0 0 0 6.688 0c5.991-1.672 17.555-5.991 19.505-14.49-6.13 7.105-14.768 11.006-24.521 13.793z" class="cls-16" data-name="Path 553" transform="translate(-245.094 -164.854)"/><path id="Path_554" d="M278.147 277.354a1.325 1.325 0 1 1-1.393-1.254 1.481 1.481 0 0 1 1.393 1.254z" class="cls-15" data-name="Path 554" transform="translate(-237.269 -155.77)"/></g><g id="Group_230" data-name="Group 230" transform="translate(813.503 244.098)"><path id="Path_555" d="M592.5 254.909a7.146 7.146 0 0 1 2.647-4.04 21.414 21.414 0 0 0-2.647-2.369" class="cls-9" data-name="Path 555" transform="translate(-580.518 -146.382)"/><g id="Group_229" data-name="Group 229"><path id="Path_556" d="M596.16 247.975c-1.115.7-2.508 0-3.762-.418a9.609 9.609 0 0 0-4.876-.418.838.838 0 0 0-.557.139c-.557.418-.139 1.254.418 1.533s1.254.279 1.951.557c.139.139.279.139.279.279.139.279-.279.7-.557.836a20.563 20.563 0 0 0-4.6 4.6 2.8 2.8 0 0 0-.557 1.115 1.267 1.267 0 0 0 .557 1.115c.836.418 2.09-1.533 3.065-1.254a16.439 16.439 0 0 0-.557 2.786c0 .279 0 .7.279.836a.512.512 0 0 0 .418-.139c.7-.418 1.533-1.811 2.229-2.368.279.557-.139 2.229 0 2.786 0 .557.557 1.393 1.115 1.254.836-.139.836-2.09 1.393-2.786.557-.418 0 1.254.418 2.647 0 0 .975 1.393 1.951-1.533a36.661 36.661 0 0 0 1.254-4.458" class="cls-9" data-name="Path 556" transform="translate(-583.9 -146.972)"/><path id="Path_557" d="M597.768 204.454a46.8 46.8 0 0 1-3.622-7.523c-.139-.418-.279-.836 0-1.115s.7 0 .975.279.557.7.836.7a8.4 8.4 0 0 0-.139-3.2c-.139-1.115.139-2.368.975-2.786.836 1.811 1.532 3.622 2.229 5.434a29.13 29.13 0 0 1-.139-3.483 2.372 2.372 0 0 1 .139-.975.509.509 0 0 1 .7-.279c.279.139.279.557.279.975.139 4.04.7 8.359 2.508 11.842a1.528 1.528 0 0 0-1.672-.418c-.836.139-1.951.418-3.065.557" class="cls-9" data-name="Path 557" transform="translate(-579.934 -169.071)"/><g id="Group_214" data-name="Group 214" transform="translate(41.641 212.601)"><path id="Path_558" d="m629.976 327.939 1.811 8.081-4.319-.139-2.368-8.081z" class="cls-10" data-name="Path 558" transform="translate(-609.34 -327.8)"/><path id="Path_559" d="M636.1 333.5a9.574 9.574 0 0 1 1.672 4.458L613.8 339.63s-1.254-4.04 17.973-5.852z" class="cls-11" data-name="Path 559" transform="translate(-613.788 -325.559)"/><g id="Group_210" data-name="Group 210" transform="translate(11.163 7.601)"><path id="Path_560" d="M622.079 333.317a3.821 3.821 0 0 1 2.368.836c1.393.836 1.811 2.09 1.672 2.229s-.836-.975-2.09-1.672c-.975-.7-1.951-.975-2.229-1.254l.279-.139z" class="cls-15" data-name="Path 560" transform="translate(-621.8 -333.256)"/></g><g id="Group_211" data-name="Group 211" transform="translate(9.63 8.147)"><path id="Path_561" d="M620.7 333.721c0-.139 1.115-.139 2.368.557 1.115.7 1.672 1.811 1.533 1.811-.139.139-.7-.7-1.811-1.393-1.115-.558-2.09-.696-2.09-.975z" class="cls-15" data-name="Path 561" transform="translate(-620.7 -333.648)"/></g><g id="Group_212" data-name="Group 212" transform="translate(7.958 8.7)"><path id="Path_562" d="M619.5 334.122c0-.139.975-.139 1.951.418s1.533 1.393 1.393 1.533-.7-.418-1.672-.975c-.836-.558-1.672-.698-1.672-.976z" class="cls-15" data-name="Path 562" transform="translate(-619.5 -334.044)"/></g><g id="Group_213" data-name="Group 213" transform="translate(14.088 5.434)"><path id="Path_563" d="M625.572 335.462a1.389 1.389 0 0 1 .139-.557 9.089 9.089 0 0 0-.279-1.533c-.139-.279-.279-.7-.418-.975-.139-.139-.139-.279-.279-.279v.279a5.228 5.228 0 0 0 .139 1.393c.139.418.418 1.115.557.975.7-.279 1.951-.7 2.09-1.393v-.418l-.279.139c-.279.279-.557.418-.836.7a5.228 5.228 0 0 0-1.254 1.811 5.056 5.056 0 0 1 .975-2.09l.836-.836.279-.139c0-.139.557-.139.557.139a.877.877 0 0 1 0 .836 1.978 1.978 0 0 1-1.115 1.254 4.992 4.992 0 0 1-1.533.557 1.057 1.057 0 0 1-.557-.279c-.139-.139-.139-.279-.279-.418-.139-.279-.139-.557-.279-.7a5.714 5.714 0 0 1-.139-1.533c0-.139.139-.7.557-.7s.557.279.7.557a4.309 4.309 0 0 1 .279 1.115 3.669 3.669 0 0 1 .139 1.672c.278.283.139.423 0 .423z" class="cls-15" data-name="Path 563" transform="translate(-623.9 -331.7)"/></g></g><g id="Group_219" data-name="Group 219" transform="translate(68.391 210.232)"><path id="Path_564" d="m649.216 326.239 1.672 8.081-4.319-.139-2.369-8.081z" class="cls-10" data-name="Path 564" transform="translate(-628.579 -326.1)"/><path id="Path_565" d="M655.3 331.8a9.574 9.574 0 0 1 1.672 4.458L633 337.93s-1.254-4.04 17.973-5.852z" class="cls-11" data-name="Path 565" transform="translate(-632.988 -323.859)"/><g id="Group_215" data-name="Group 215" transform="translate(11.023 7.558)"><path id="Path_566" d="M641.179 331.629a3.821 3.821 0 0 1 2.368.836c1.393.836 1.811 2.09 1.672 2.229s-.836-.975-2.09-1.672c-.975-.7-1.951-.975-2.229-1.254l.279-.139z" class="cls-15" data-name="Path 566" transform="translate(-640.9 -331.525)"/></g><g id="Group_216" data-name="Group 216" transform="translate(9.491 8.147)"><path id="Path_567" d="M639.8 332.021c0-.139 1.115-.139 2.368.557 1.115.7 1.672 1.811 1.533 1.811-.139.139-.7-.7-1.811-1.393a16.32 16.32 0 0 1-2.09-.975z" class="cls-15" data-name="Path 567" transform="translate(-639.8 -331.948)"/></g><g id="Group_217" data-name="Group 217" transform="translate(7.819 8.7)"><path id="Path_568" d="M638.6 332.422c0-.139.975-.139 1.951.418s1.533 1.393 1.393 1.533-.7-.418-1.672-.975c-.836-.558-1.672-.837-1.672-.976z" class="cls-15" data-name="Path 568" transform="translate(-638.6 -332.344)"/></g><g id="Group_218" data-name="Group 218" transform="translate(14.088 5.434)"><path id="Path_569" d="M644.772 333.762a1.389 1.389 0 0 1 .139-.557 9.09 9.09 0 0 0-.279-1.533c-.139-.279-.279-.7-.418-.975-.139-.139-.139-.279-.279-.279v.279a5.224 5.224 0 0 0 .139 1.393c.139.418.418 1.115.557.975.7-.279 1.951-.7 2.09-1.393v-.418l-.279.139c-.279.279-.557.418-.836.7a5.228 5.228 0 0 0-1.254 1.811 5.055 5.055 0 0 1 .975-2.09l.836-.836.279-.139c0-.139.557-.139.557.139a.877.877 0 0 1 0 .836 1.977 1.977 0 0 1-1.115 1.254 4.989 4.989 0 0 1-1.532.557 1.057 1.057 0 0 1-.557-.279c-.139-.139-.139-.279-.279-.418-.139-.279-.139-.557-.279-.7a5.716 5.716 0 0 1-.139-1.533c0-.139.139-.7.557-.7s.557.279.7.557a4.309 4.309 0 0 1 .279 1.115 3.668 3.668 0 0 1 .139 1.672c.138.283-.001.423-.001.423z" class="cls-15" data-name="Path 569" transform="translate(-643.1 -330)"/></g></g><path id="Path_570" d="M641.551 195.887s17-5.294 25.217 28c8.22 33.159 3.065 42.493 3.065 42.493l-42.633-5.29s5.852-17.415 4.18-28.143-8.081-31.069-8.081-31.069 9.336-7.245 18.252-5.991z" class="cls-11" data-name="Path 570" transform="translate(-568.407 -167.192)"/><path id="Path_571" d="M595.6 201.126s10.728 36.642 24.381 29.4 31.348-21.456 31.348-21.456l-15.186-10.87s-17 20.62-20.9 17.415c-3.762-3.2-12.678-15.047-12.678-15.047z" class="cls-11" data-name="Path 571" transform="translate(-579.299 -166.161)"/><path id="Path_572" d="M628.986 198.2 613.8 230.1l20.341-13.514-.836-16.022z" class="cls-17" data-name="Path 572" transform="translate(-572.143 -166.161)"/><path id="Path_573" d="M641.827 239.9s-34.134 38.871-36.781 50.713c-2.647 11.7 27.725 76.209 27.725 76.209l7.523-.557s-16.44-62.416-14.768-69.661 18.391-27.586 18.391-27.586-11.424 22.152-7.105 42.772c4.737 22.57 22.013 50.017 22.013 50.017l7.105-.557s-16.44-55.729-9.892-67.85c6.827-12.818 21.595-44.583 21.595-44.583z" class="cls-11" data-name="Path 573" transform="translate(-575.649 -149.764)"/><g id="Group_220" data-name="Group 220" transform="translate(67.981 100.585)"><path id="Path_574" d="M650.954 247.4a10.246 10.246 0 0 0-.279 1.115c-.279.836-.7 1.811-1.115 3.065q-1.672 4.389-4.18 11.285c-1.811 4.876-3.9 10.449-6.13 16.579-1.115 3.2-2.368 6.409-3.622 9.753a33.1 33.1 0 0 0-1.533 5.294c-.279 1.811-.557 3.762-.7 5.573-.139 7.663 1.393 14.908 3.065 21.316a144.444 144.444 0 0 0 5.712 16.719c1.811 4.737 3.483 8.359 4.737 11.006.557 1.115.975 2.09 1.393 2.926.279.7.418.975.418.975a3.091 3.091 0 0 1-.557-.975 30.725 30.725 0 0 0-1.533-2.926c-1.254-2.508-2.926-6.27-4.876-10.867a152.427 152.427 0 0 1-5.852-16.719 74.511 74.511 0 0 1-3.2-21.456 37.665 37.665 0 0 1 .7-5.712 33.448 33.448 0 0 1 1.672-5.294c1.254-3.344 2.508-6.687 3.762-9.753 2.368-6.13 4.458-11.842 6.27-16.579 1.811-4.6 3.2-8.359 4.319-11.146.418-1.115.836-2.229 1.254-3.065a1.628 1.628 0 0 1 .275-1.114z" class="cls-15" data-name="Path 574" transform="translate(-632.694 -247.4)"/></g><g id="Group_221" data-name="Group 221" transform="translate(37.715 101.7)"><path id="Path_575" d="M641.245 248.2s-.279.279-.836.975c-.7.7-1.533 1.672-2.508 2.786-2.09 2.368-5.294 5.852-8.917 10.31a199.691 199.691 0 0 0-12.4 15.883c-.975 1.533-2.09 3.2-3.065 4.876a14.922 14.922 0 0 0-2.09 5.573c-.7 4.04-.139 8.359.557 12.678a149.058 149.058 0 0 0 6.688 23.685c2.508 7.105 5.016 13.514 7.245 18.809s4.04 9.613 5.294 12.539c.557 1.393 1.115 2.508 1.532 3.344a5.719 5.719 0 0 0 .557 1.254 6.641 6.641 0 0 1-.557-1.115c-.418-.975-.975-1.951-1.532-3.344-1.393-2.926-3.2-7.105-5.434-12.4s-4.737-11.7-7.245-18.809a150.891 150.891 0 0 1-6.687-23.824c-.7-4.319-1.254-8.638-.557-12.818a15.8 15.8 0 0 1 2.229-5.712c.975-1.811 2.09-3.344 3.065-5.016a176.272 176.272 0 0 1 12.539-15.883c3.762-4.319 6.827-7.8 9.056-10.171a50.794 50.794 0 0 1 2.508-2.647 1.557 1.557 0 0 1 .558-.973z" class="cls-15" data-name="Path 575" transform="translate(-610.97 -248.2)"/></g><g id="Group_222" data-name="Group 222" transform="translate(55.729 214.168)"><path id="Path_576" d="M631.981 329.029a15.283 15.283 0 0 1-4.04.557 16.264 16.264 0 0 1-4.04 0 15.283 15.283 0 0 1 4.04-.557 16.256 16.256 0 0 1 4.04 0z" class="cls-15" data-name="Path 576" transform="translate(-623.9 -328.925)"/></g><g id="Group_223" data-name="Group 223" transform="translate(80.807 207.27)"><path id="Path_577" d="M651.235 324.01a17.538 17.538 0 0 1-4.6 1.115 23.515 23.515 0 0 1-4.737.557 17.536 17.536 0 0 1 4.6-1.115 25.546 25.546 0 0 1 4.737-.557z" class="cls-15" data-name="Path 577" transform="translate(-641.9 -323.974)"/></g><g id="Group_224" data-name="Group 224" transform="translate(90.883 98.491)"><path id="Path_578" d="M653.546 259.555a2.551 2.551 0 0 1-2.229-.836 9.2 9.2 0 0 1-2.09-5.155 11.936 11.936 0 0 1 1.533-7.663 17.105 17.105 0 0 0-.975 7.523 10.522 10.522 0 0 0 1.811 5.016 3.822 3.822 0 0 0 1.95 1.115z" class="cls-15" data-name="Path 578" transform="translate(-649.132 -245.897)"/></g><g id="Group_225" data-name="Group 225" transform="translate(57.68 94.033)"><path id="Path_579" d="M641.043 242.7a7.509 7.509 0 0 1-1.532 2.09 16.554 16.554 0 0 1-5.294 3.483 13.894 13.894 0 0 1-6.27 1.115c-1.672 0-2.647-.279-2.647-.418a21.482 21.482 0 0 0 8.638-1.254c4.598-1.81 6.962-5.154 7.105-5.016z" class="cls-15" data-name="Path 579" transform="translate(-625.3 -242.697)"/></g><g id="Group_226" data-name="Group 226" transform="translate(71.042 94.037)"><path id="Path_580" d="M642.427 242.7a19.08 19.08 0 0 1-.975 2.229 50.377 50.377 0 0 1-2.786 5.155 49.622 49.622 0 0 1-3.2 4.876c-.279.557.279.975.557 1.254a1.525 1.525 0 0 1 .557.279 2.438 2.438 0 0 1-.7-.139 1.273 1.273 0 0 1-.7-.418.843.843 0 0 1-.139-1.115c.836-1.393 1.951-3.065 3.065-5.016 2.51-3.905 4.182-7.105 4.321-7.105z" class="cls-15" data-name="Path 580" transform="translate(-634.891 -242.7)"/></g><path id="Path_581" d="M642.136 243.7a1.73 1.73 0 0 0-.836 1.115c0 .418.418.975.836.836.139 0 .279-.139.418-.279a1.291 1.291 0 0 0-.418-1.672" class="cls-15" data-name="Path 581" transform="translate(-561.329 -148.27)"/><path id="Path_582" d="m629.175 242.8 39.289 4.876-1.95 4.04-38.314-7.8z" class="cls-17" data-name="Path 582" transform="translate(-566.48 -148.623)"/><g id="Group_227" data-name="Group 227" transform="translate(31.868)"><path id="Path_583" d="m611.2 187.659 6.827 14.35a6.358 6.358 0 0 0 8.5 3.065l1.951-.836 7.245 8.22 11.424-10.031-20.482-23.127z" class="cls-9" data-name="Path 583" transform="translate(-605.033 -173.593)"/><path id="Path_584" d="M607.368 183.836s.7-3.622 6.966-2.786c6.13.836 9.892-7.8 16.44-5.434s10.171 9.056 11.424 15.743l1.254 5.016-5.852 5.155s-7.8-2.926-8.22-5.434c0 0 5.155-6.966 0-8.359s-3.344 6.13-3.344 6.13l-1.811 1.393-4.319-7.941s-6.409 4.458-10.589 1.811-1.949-5.294-1.949-5.294z" class="cls-11" data-name="Path 584" transform="translate(-606.774 -175.204)"/></g><path id="Path_585" d="M628.818 209.107c.139-.557-.418-5.573-.418-5.573l9.892-9.335 5.016 2.368" class="cls-13" data-name="Path 585" transform="translate(-566.401 -167.734)"/><path id="Line_9" d="M14.629 0 0 12.4" class="cls-13" data-name="Line 9" transform="translate(62.417 28.974)"/><path id="Path_586" d="M628.768 221.716 626.4 200.4l3.762 3.9-1.254 18.251" class="cls-13" data-name="Path 586" transform="translate(-567.188 -165.296)"/><path id="Path_587" d="m628.757 202.6 3.9 12.121-4.458 9.2z" class="cls-15" data-name="Path 587" transform="translate(-566.48 -164.431)"/><path id="Path_588" d="M629.24 224.085 625.2 208.9l1.672-8.5z" class="cls-15" data-name="Path 588" transform="translate(-567.66 -165.296)"/><path id="Path_589" d="m626.857 200.4 2.647 3.065-.139 6.13-2.229-1.533-.836-6.827" class="cls-14" data-name="Path 589" transform="translate(-567.227 -165.296)"/><path id="Path_591" d="M637.237 206.5s2.926 30.651-10.31 30.93-15.465-2.508-15.465-2.508L603.8 239.1l4.18 8.081s17.973 5.991 28.979-1.115c18.112-11.7 1.393-38.871 1.393-38.871z" class="cls-14" data-name="Path 591" transform="translate(-576.075 -162.897)"/><path id="Path_592" d="M650.73 212.9c-1.254.557-59.63 47.927-59.63 47.927l4.876 5.016s52.107-29.954 56.008-36.5-1.254-16.443-1.254-16.443z" class="cls-11" data-name="Path 592" transform="translate(-581.069 -160.381)"/><g id="Group_228" data-name="Group 228" transform="translate(61.859 51.535)"><path id="Path_593" d="M634.151 232.4s.557-.279 1.672-.975a49.142 49.142 0 0 0 4.6-2.647 70.625 70.625 0 0 0 6.27-4.6 11.724 11.724 0 0 0 3.065-3.344 4.28 4.28 0 0 0 .279-4.458 7.043 7.043 0 0 0-3.9-2.647 12.849 12.849 0 0 0-4.458-.975c-2.926-.139-5.294 1.254-7.245 2.368-1.672.975-3.065 1.951-4.458 2.786-1.115.7-1.672.975-1.672.975s.557-.418 1.533-1.115c1.254-.836 2.786-1.951 4.458-3.065 1.811-1.115 4.319-2.647 7.523-2.508a13.6 13.6 0 0 1 4.6.975 7.966 7.966 0 0 1 4.18 2.926 4.951 4.951 0 0 1-.279 5.016 12.282 12.282 0 0 1-3.2 3.344 40.042 40.042 0 0 1-6.409 4.6 92.095 92.095 0 0 1-4.737 2.508 9.6 9.6 0 0 1-1.393.557c-.289.279-.429.279-.429.279z" class="cls-15" data-name="Path 593" transform="translate(-628.3 -212.194)"/></g><path id="Path_594" d="M625.66 231.472c1.115 1.533-.7 4.737-4.04 6.966s-6.966 2.786-7.941 1.254.7-4.737 4.04-6.966c3.343-2.369 6.826-2.926 7.941-1.254z" class="cls-15" data-name="Path 594" transform="translate(-572.299 -153.457)"/><path id="Path_595" d="M627.7 244.035s24.381-14.629 22.849-25.635l-22.431 16.44s1.254 2.926-.418 9.195z" class="cls-17" data-name="Path 595" transform="translate(-566.677 -158.218)"/></g></g><path id="Path_596" d="M357.186 372.494c0 2.926-24.521 5.294-54.893 5.294-30.233 0-54.893-2.369-54.893-5.294s24.521-5.294 54.893-5.294 54.893 2.368 54.893 5.294z" class="cls-16" data-name="Path 596" transform="translate(97.284 144.392)"/><path id="Path_597" d="M515.486 367.894c0 2.926-24.521 5.294-54.893 5.294-30.233 0-54.893-2.369-54.893-5.294s24.521-5.294 54.893-5.294 54.893 2.368 54.893 5.294z" class="cls-16" data-name="Path 597" transform="translate(159.531 142.583)"/><g id="Group_239" data-name="Group 239" transform="translate(546.115 257.93)"><path id="Path_598" d="m455.158 191.7 5.573 15.047a6.29 6.29 0 0 1-3.762 8.22l-1.951.7.836 11.006-15.326 1.115-2.229-30.93z" class="cls-9" data-name="Path 598" transform="translate(-373.765 -182.549)"/><path id="Path_599" d="M456.67 185.505s-3.065-1.951-6.827 3.065-12.539 1.672-15.465 7.941-.7 13.654 3.2 19.366l2.786 4.458 7.8-.557s3.344-7.663 1.951-9.753c0 0-8.638-1.254-5.991-5.852s6.827 1.951 6.827 1.951l2.229-.279-2.647-8.638s7.663-1.533 8.638-6.409c.842-5.014-2.501-5.293-2.501-5.293z" class="cls-11" data-name="Path 599" transform="translate(-375.834 -185.132)"/><path id="Path_600" d="m432.984 294.5 1.951 22.292a80.844 80.844 0 0 1-.7 19.226l-8.635 55.311h4.876L446.5 348.7a82.841 82.841 0 0 0 5.155-24.66l1.672-29.4h-20.343z" class="cls-18" data-name="Path 600" transform="translate(-378.759 -142.126)"/><path id="Path_601" d="m443.9 288.8 3.9 28.282a129.782 129.782 0 0 1 1.811 24.381l-1.253 53.637 4.18-1.672 8.638-34.97a127.47 127.47 0 0 0 2.926-43.608l-1.811-26.05H443.9z" class="cls-18" data-name="Path 601" transform="translate(-371.563 -144.367)"/><path id="Path_602" d="M446.765 223.81s-13.236-3.065-10.171 16.719 6.548 30.372 6.548 30.372-23.267 26.889-16.161 62.834l1.811 20.062h48.345l-6.13-95.018 1.533-1.811a12.819 12.819 0 0 0 2.786-10.867l-2.369-12.121 32.462-5.016 26.332-22.849-6.13-5.016-21.595 16.022z" class="cls-11" data-name="Path 602" transform="translate(-378.747 -178.853)"/><path id="Path_603" d="M462.227 192.758c-4.6 5.294-7.245 11.7-1.811 16.022a5.627 5.627 0 0 1 2.09 2.368c.279.557 3.483 1.254 3.483 1.811-.418 6.966-4.18 14.072-4.6 21.038-.139 2.786-.418 5.573-1.811 7.941-2.09 3.344-6.269 4.737-9.2 7.384-3.2 2.786-5.016 6.827-7.8 10.171-4.319 4.876-10.589 7.663-17.137 8.5a32.41 32.41 0 0 1-23.128-5.712 25.38 25.38 0 0 1-10.31-21.177c.557-11.842 11.006-21.734 22.57-24.242 4.876-.975 10.031-.975 14.768-2.229 4.876-1.254 9.753-4.319 11.146-9.056.836-2.647.418-5.573 1.533-8.22 0 0 2.786-10.867 20.62-7.8" class="cls-11" data-name="Path 603" transform="translate(-391.979 -183.608)"/><path id="Path_604" d="M431.966 363.8s8.917 1.393 9.335 3.344c.418 1.811-16.3-.975-16.3-.975l.279-2.09" class="cls-11" data-name="Path 604" transform="translate(-378.995 -114.876)"/><path id="Path_605" d="M451.537 363.6s10.867.557 11.424 2.368c.7 1.811-16.161 1.393-16.161 1.393v-2.09" class="cls-11" data-name="Path 605" transform="translate(-370.423 -114.954)"/><g id="Group_232" data-name="Group 232" transform="translate(52.275 113.211)"><path id="Line_10" d="m0 0 42.493 5.155" class="cls-15" data-name="Line 10" transform="translate(0 .013)"/><g id="Group_231" data-name="Group 231"><path id="Path_606" d="M471.993 271.559c0 .139-9.613-.836-21.316-2.229s-21.177-2.787-21.177-2.93 9.613.836 21.316 2.229c11.703 1.536 21.177 2.79 21.177 2.93z" class="cls-15" data-name="Path 606" transform="translate(-429.5 -266.39)"/></g></g><g id="Group_233" data-name="Group 233" transform="translate(64.396 89.365)"><path id="Path_607" d="M450.042 249.31a30.25 30.25 0 0 1-5.852 1.393 32.646 32.646 0 0 1-5.991.7 30.249 30.249 0 0 1 5.852-1.393 32.639 32.639 0 0 1 5.991-.7z" class="cls-15" data-name="Path 607" transform="translate(-438.2 -249.275)"/></g><g id="Group_234" data-name="Group 234" transform="translate(66.903 92.553)"><path id="Path_608" d="M451.006 253.287a26.459 26.459 0 0 1-5.573-.418c-3.065-.418-5.434-.975-5.434-1.254a26.462 26.462 0 0 1 5.573.418c2.928.557 5.434.975 5.434 1.254z" class="cls-15" data-name="Path 608" transform="translate(-440 -251.562)"/></g><g id="Group_235" data-name="Group 235" transform="translate(78.735 53.316)"><path id="Path_609" d="M472.745 223.4a15.987 15.987 0 0 1-3.483.836c-2.229.418-5.294.975-8.638 1.533s-6.409.975-8.638 1.254a29.162 29.162 0 0 0-3.483.836c-.139-.139 1.115-.975 3.344-1.393s5.294-.975 8.638-1.533 6.409-.975 8.638-1.254c2.229-.14 3.622-.279 3.622-.279z" class="cls-15" data-name="Path 609" transform="translate(-448.492 -223.4)"/></g><path id="Path_610" d="M478.879 223.173c2.647-3.483 6.966-5.155 11.285-5.573a57.8 57.8 0 0 1-4.458 3.762c-.279.279-.7.836-1.115.975-.279.139-.557 0-.975.139-1.811.418-3.483.418-5.016.836" class="cls-15" data-name="Path 610" transform="translate(-357.918 -172.365)"/><g id="Group_236" data-name="Group 236" transform="translate(57 40.916)"><path id="Path_611" d="M446.557 214.5c.139 0 .139 1.672-.836 4.319-.975 2.508-2.508 5.852-4.319 9.613a52.715 52.715 0 0 1-5.573 8.917 28.36 28.36 0 0 1-2.926 3.2c-.139-.139.975-1.393 2.508-3.483a75.373 75.373 0 0 0 5.294-8.917 231.701 231.701 0 0 0 4.458-9.474 38.741 38.741 0 0 0 1.394-4.175z" class="cls-15" data-name="Path 611" transform="translate(-432.892 -214.5)"/></g><g id="Group_238" data-name="Group 238" transform="translate(84.297 120.33)"><path id="Path_612" d="M452.981 271.5a385.031 385.031 0 0 0 1.811 55.311" class="cls-15" data-name="Path 612" transform="translate(-452.402 -271.5)"/><g id="Group_237" data-name="Group 237"><path id="Path_613" d="m455.014 326.95-.418-2.09c-.139-1.393-.418-3.344-.7-5.852-.557-5.016-.975-11.982-1.254-19.644s-.139-14.629 0-19.644c.139-2.508.139-4.6.279-5.991s.139-2.229.279-2.229a9.316 9.316 0 0 1 0 2.229v5.991c0 5.016 0 11.982.279 19.644s.7 14.49 1.115 19.505c.139 2.368.279 4.458.418 5.991l.002 2.09z" class="cls-15" data-name="Path 613" transform="translate(-452.484 -271.5)"/></g></g><path id="Path_614" d="M498.336 205.053c.975-3.483 2.229-7.245 4.876-9.753.836 1.254-.557 2.926 0 4.319 1.393-1.393 3.2-2.786 5.155-2.368a6.1 6.1 0 0 1-2.508 2.786c1.393-.7 3.065-1.393 4.6-.836-1.393 1.115-2.786 2.09-4.18 3.065a25.655 25.655 0 0 1 4.6-.418c.279.279-.139.7-.418.836a17.84 17.84 0 0 1-3.344 1.533c.7 0 1.254.139 1.951.139.279 0 .557 0 .7.279s-.139.7-.418.975a9.511 9.511 0 0 1-3.065 1.254c-1.254.418-2.647.7-3.9 1.115h-.285a.3.3 0 0 1-.279-.279 8.708 8.708 0 0 0-4.319-2.647" class="cls-9" data-name="Path 614" transform="translate(-350.486 -181.134)"/></g><g id="Group_252" data-name="Group 252" transform="translate(379.236 17.415)"><g id="Group_240" data-name="Group 240" transform="translate(518.976 41.936)"><path id="Path_615" d="m653.756 42.6 3.344 5.852 5.852 3.344L657.1 55l-3.344 5.852L650.552 55l-5.852-3.2 5.852-3.344z" class="cls-19" data-name="Path 615" transform="translate(-644.7 -42.6)"/></g><g id="Group_241" data-name="Group 241" transform="translate(0 32.741)"><path id="Path_616" d="m281.4 36 3.2 5.852 5.991 3.344L284.6 48.4l-3.2 5.991-3.2-5.991-6-3.2 5.991-3.344z" class="cls-19" data-name="Path 616" transform="translate(-272.2 -36)"/></g><g id="Group_242" data-name="Group 242" transform="translate(237.266 144.338)"><path id="Path_617" d="m456.432 116.1 4.876 9.056 9.056 5.016-9.056 4.876-4.876 9.056-5.016-9.056-8.917-4.876 8.917-5.016z" class="cls-19" data-name="Path 617" transform="translate(-442.5 -116.1)"/></g><g id="Group_245" data-name="Group 245" transform="translate(30.79 73.702)"><g id="Group_244" data-name="Group 244"><g id="Group_243" data-name="Group 243"><path id="Path_618" d="M318.4 65.4a.431.431 0 0 1-.139.279 4.636 4.636 0 0 0-.418.836 30.969 30.969 0 0 0-1.533 3.065c-1.393 2.647-3.344 6.409-5.852 11.006-4.18 2.368-9.335 5.155-15.047 8.359v-.557c4.6 2.508 9.613 5.294 15.047 8.22h.139v.139c2.647 4.737 5.434 9.753 8.22 15.047h-.7v-.139l.139-.279.279-.418.557-.975c.418-.7.7-1.254 1.115-1.951l2.09-3.762c1.393-2.508 2.786-5.016 4.04-7.384v-.139h.139c5.294-2.926 10.449-5.712 15.047-8.22v.557q-8.568-4.807-15.047-8.359c-2.508-4.737-4.458-8.359-5.852-11.006a20.663 20.663 0 0 1-1.533-3.065l-.418-.836a1.723 1.723 0 0 0-.279-.418s.139.279.557.975.975 1.672 1.672 2.926c1.533 2.647 3.622 6.409 6.27 11.006l-.139-.139c4.319 2.368 9.335 5.016 15.047 8.22l.557.279-.557.279c-4.6 2.508-9.613 5.294-15.047 8.22l.139-.139c-1.254 2.368-2.647 4.876-4.04 7.384l-2.09 3.762c-.418.7-.7 1.254-1.115 1.951l-.557.975-.279.418-.139.279v.139h-.7c-2.786-5.294-5.573-10.31-8.22-15.047l.139.139c-5.434-2.926-10.449-5.712-15.047-8.22l-.557-.279.557-.279c5.712-3.065 10.867-5.852 15.047-8.22l-.139.139a787.248 787.248 0 0 1 6.27-11.006q1.045-1.881 1.672-2.926a1.969 1.969 0 0 0 .705-.836z" class="cls-19" data-name="Path 618" transform="translate(-294.3 -65.4)"/></g></g></g><g id="Group_246" data-name="Group 246" transform="translate(362.378 186.553)"><path id="Path_619" d="m541.635 146.4 3.344 6.13 6.13 3.344-6.13 3.344-3.344 6.13-3.344-6.13-5.991-3.344 5.991-3.344z" class="cls-19" data-name="Path 619" transform="translate(-532.3 -146.4)"/></g><g id="Group_247" data-name="Group 247" transform="translate(182.93 201.042)"><path id="Path_620" d="m407.958 156.8 1.672 2.926 2.926 1.533-2.926 1.672-1.672 2.926-1.533-2.926-2.926-1.672 2.926-1.533z" class="cls-19" data-name="Path 620" transform="translate(-403.5 -156.8)"/></g><g id="Group_248" data-name="Group 248" transform="translate(492.783)"><path id="Path_621" d="m630.358 12.5 1.672 2.926 2.926 1.672-2.926 1.532-1.672 2.926-1.533-2.926-2.925-1.53 2.926-1.672z" class="cls-19" data-name="Path 621" transform="translate(-625.9 -12.5)"/></g><g id="Group_249" data-name="Group 249" transform="translate(139.044 60.187)"><path id="Path_622" d="m376.6 55.7 1.533 2.926 2.926 1.672-2.929 1.532-1.53 2.926-1.672-2.926L372 60.3l2.926-1.672z" class="cls-19" data-name="Path 622" transform="translate(-372 -55.7)"/></g><g id="Group_250" data-name="Group 250" transform="translate(81.782 342.594)"><path id="Path_623" d="m340.1 258.4 3.2 5.852 5.991 3.344-5.991 3.2-3.2 5.852-3.2-5.852-5.991-3.2 5.991-3.344z" class="cls-19" data-name="Path 623" transform="translate(-330.9 -258.4)"/></g><g id="Group_251" data-name="Group 251" transform="translate(162.45 362.378)"><path id="Path_624" d="m393.258 272.6 1.672 2.926 2.926 1.672-2.926 1.533-1.672 2.926-1.533-2.926-2.925-1.531 2.926-1.672z" class="cls-19" data-name="Path 624" transform="translate(-388.8 -272.6)"/></g></g><g id="Group_265" data-name="Group 265" transform="translate(353.534)"><g id="Group_255" data-name="Group 255" transform="translate(345.241 105.049)"><g id="Group_254" data-name="Group 254"><g id="Group_253" data-name="Group 253"><path id="Path_625" d="M554.143 127.925v-3.762c0-2.508 0-6.13-.139-10.589 0-9.2-.139-22.152-.139-37.756l.279.279H501.9l.418-.418v52.107l-.279-.279c15.6 0 28.561.139 37.756.139 4.6 0 8.081 0 10.588.139h3.483l.279.139h-3.762c-2.508 0-5.991 0-10.588.139-9.2 0-22.292.139-37.9.139h-.279V75.818l.418-.418h52.525v.279c0 15.6-.139 28.7-.139 37.9 0 4.458 0 8.081-.139 10.589v3.483c.001.134.001.274-.138.274z" class="cls-19" data-name="Path 625" transform="translate(-501.553 -75.4)"/></g></g></g><g id="Group_258" data-name="Group 258" transform="translate(187.667 117.867)"><g id="Group_257" data-name="Group 257"><g id="Group_256" data-name="Group 256"><path id="Path_626" d="M414.293 110.235v-1.951c0-1.254 0-3.065-.139-5.155 0-4.458-.139-10.728-.139-18.251l.279.279h-25.357l.418-.418v25.5l-.279-.279c7.523 0 13.793.139 18.251.139 2.229 0 3.9 0 5.155.139-1.254 0-2.926 0-5.155.139-4.6 0-10.867.139-18.53.139h-.279v-25.5l.418-.418h25.635v.279c0 7.523-.139 13.932-.139 18.53 0 2.09 0 3.9-.139 5.155v1.672z" class="cls-19" data-name="Path 626" transform="translate(-388.453 -84.6)"/></g></g></g><g id="Group_261" data-name="Group 261" transform="translate(74.537)"><g id="Group_260" data-name="Group 260"><g id="Group_259" data-name="Group 259"><path id="Path_627" d="M359.843 52.525v-3.762c0-2.508 0-6.13-.139-10.589 0-9.2-.139-22.152-.139-37.756l.279.279H307.6l.418-.418v52.106l-.279-.279c15.6 0 28.561.139 37.756.139 4.6 0 8.081 0 10.589.139h3.483a.432.432 0 0 0 .279.139h-3.762c-2.508 0-5.991 0-10.589.139-9.2 0-22.292.139-37.9.139h-.279V.418l.42-.418h52.525v.279c0 15.743-.139 28.7-.139 37.9 0 4.458 0 8.081-.139 10.589v3.483z" class="cls-19" data-name="Path 627" transform="translate(-307.253)"/></g></g></g><g id="Group_264" data-name="Group 264" transform="translate(0 179.669)"><g id="Group_263" data-name="Group 263"><g id="Group_262" data-name="Group 262"><path id="Path_628" d="M273.6 148.8a12.062 12.062 0 0 0-.139-1.533c0-.975 0-2.368-.139-4.04 0-3.483-.139-8.359-.139-14.072l.279.279h-19.504l.418-.418v19.505h-.276c5.712 0 10.589.139 14.072.139a34.052 34.052 0 0 1 4.04.139h1.388a11.359 11.359 0 0 0-1.393.139c-.975 0-2.368 0-3.9.139-3.483 0-8.5.139-14.211.139h-.279v-19.782l.418-.418h19.785v.279c0 5.852-.139 10.728-.139 14.211a30.434 30.434 0 0 1-.139 3.9 4.946 4.946 0 0 1-.142 1.394z" class="cls-19" data-name="Path 628" transform="translate(-253.753 -128.959)"/></g></g></g></g><g id="Group_286" data-name="Group 286" transform="translate(678.465 343.032)"><g id="Group_271" data-name="Group 271" transform="translate(35.688 30.747)"><g id="Group_266" data-name="Group 266"><path id="Path_629" d="M529.183 362.628c6.548 2.229 14.35 1.672 19.227-3.344a17.2 17.2 0 0 0 2.926-19.366c-1.533-3.065-4.04-5.852-3.9-9.2a11.133 11.133 0 0 1 1.951-5.016c1.951-2.926 4.6-5.434 6.409-8.359 1.811-3.065 2.926-6.827 1.533-10.031-2.786-6.27-12.678-6.548-15.6-12.818-1.393-2.926-.836-6.409-.557-9.613.279-3.9.139-7.941-1.672-11.424-1.811-3.344-5.852-5.852-9.613-5.016-4.458.975-6.827 5.991-8.5 10.31-1.115 2.926-2.229 5.712-3.344 8.638-3.065 7.941-6.13 16.579-4.04 24.939 1.672 6.687 6.409 12.121 10.31 17.833.7 1.115 1.533 2.229 1.393 3.622-.139 1.951-2.229 3.344-4.319 3.762-1.951.418-4.18.418-5.852 1.533-2.09 1.254-3.065 3.9-2.926 6.409a13.011 13.011 0 0 0 2.786 6.687c-.005-.135 6.543 7.946 13.788 10.454z" class="cls-4" data-name="Path 629" transform="translate(-512.591 -268.284)"/></g><g id="Group_267" data-name="Group 267" transform="translate(21.748 35.411)"><path id="Path_630" d="M528.2 293.7v59.63" class="cls-4" data-name="Path 630" transform="translate(-528.2 -293.7)"/></g><g id="Group_268" data-name="Group 268" transform="translate(21.33 45.024)"><path id="Path_631" d="M527.9 316.9c3.2-4.319 6.548-8.5 9.753-12.818a35.161 35.161 0 0 1 2.926-3.483" class="cls-4" data-name="Path 631" transform="translate(-527.9 -300.6)"/></g><g id="Group_269" data-name="Group 269" transform="translate(11.995 75.396)"><path id="Path_632" d="M521.2 322.4a105.412 105.412 0 0 1 8.5 9.2 3.715 3.715 0 0 1 .975 1.951" class="cls-4" data-name="Path 632" transform="translate(-521.2 -322.4)"/></g><g id="Group_270" data-name="Group 270" transform="translate(12.831 33.878)"><path id="Path_633" d="M521.8 292.6c2.647 3.622 5.712 9.892 8.5 13.932" class="cls-4" data-name="Path 633" transform="translate(-521.8 -292.6)"/></g></g><g id="Group_285" data-name="Group 285"><g id="Group_272" data-name="Group 272"><path id="Path_634" d="M509.58 374.51c8.917 3.065 19.644 2.229 26.193-4.6a23.339 23.339 0 0 0 3.9-26.332c-2.09-4.04-5.573-7.941-5.434-12.539a13.783 13.783 0 0 1 2.647-6.827c2.647-3.9 6.269-7.384 8.777-11.424s3.9-9.335 2.09-13.654c-3.762-8.5-17.276-8.917-21.316-17.415-1.951-4.04-1.115-8.638-.7-12.957.418-5.294.279-10.867-2.368-15.465-2.508-4.6-7.941-8.081-13.1-6.827-6.13 1.393-9.335 8.081-11.564 14.072-1.533 3.9-2.926 7.8-4.458 11.7-4.18 10.867-8.359 22.57-5.573 33.855 2.229 9.056 8.638 16.579 14.072 24.242.975 1.393 2.09 3.065 1.951 4.876-.279 2.786-3.065 4.458-5.852 5.016-2.647.557-5.573.557-7.941 2.09a9.386 9.386 0 0 0-3.9 8.638 18.036 18.036 0 0 0 3.762 9.056c.145.145 8.922 11.151 18.814 14.495z" class="cls-20" data-name="Path 634" transform="translate(-486.975 -246.215)"/></g><g id="Group_275" data-name="Group 275" transform="translate(29.153 48.185)"><g id="Group_274" data-name="Group 274"><g id="Group_273" data-name="Group 273"><path id="Path_635" d="M508.318 361.886c-.139 0-.418-18.112-.418-40.543s.139-40.543.418-40.543c.139 0 .418 18.112.418 40.543 0 22.291-.136 40.543-.418 40.543z" class="cls-15" data-name="Path 635" transform="translate(-507.9 -280.8)"/></g></g></g><g id="Group_278" data-name="Group 278" transform="translate(29.001 61.407)"><g id="Group_277" data-name="Group 277"><g id="Group_276" data-name="Group 276"><path id="Path_636" d="M525.219 290.3c0 .139-1.115 1.115-2.647 3.2s-3.622 4.876-5.991 7.941-4.458 5.852-6.13 7.8a20.524 20.524 0 0 1-2.647 3.065 27.105 27.105 0 0 1 2.229-3.483c1.393-2.09 3.622-4.876 5.991-7.941s4.458-5.852 6.13-7.8c1.811-1.942 3.065-2.918 3.065-2.782z" class="cls-15" data-name="Path 636" transform="translate(-507.79 -290.291)"/></g></g></g><g id="Group_281" data-name="Group 281" transform="translate(16.471 102.784)"><g id="Group_280" data-name="Group 280"><g id="Group_279" data-name="Group 279"><path id="Path_637" d="M511.758 335.051a5.865 5.865 0 0 1-.279-.7 6.8 6.8 0 0 0-1.115-1.672c-1.254-1.393-2.786-3.344-4.737-5.294-3.762-4.18-6.966-7.245-6.827-7.384a15.467 15.467 0 0 1 2.368 1.811 60.374 60.374 0 0 1 5.016 5.155c1.811 2.09 3.483 4.04 4.6 5.573a5.713 5.713 0 0 1 1.115 1.951 1.441 1.441 0 0 1-.141.56z" class="cls-15" data-name="Path 637" transform="translate(-498.797 -319.989)"/></g></g></g><g id="Group_284" data-name="Group 284" transform="translate(17.59 46.095)"><g id="Group_283" data-name="Group 283"><g id="Group_282" data-name="Group 282"><path id="Path_638" d="M511.164 298.248c-.139.139-3.065-4.04-5.991-9.335-1.533-2.647-2.926-5.016-3.9-6.827-.975-1.672-1.672-2.786-1.672-2.786a13.16 13.16 0 0 1 2.09 2.508 126.11 126.11 0 0 1 4.18 6.688c1.393 2.508 2.786 4.876 3.9 6.827a26.634 26.634 0 0 1 1.393 2.925z" class="cls-15" data-name="Path 638" transform="translate(-499.6 -279.3)"/></g></g></g></g></g><g id="Group_307" data-name="Group 307" transform="translate(453.481 404.43)"><g id="Group_292" data-name="Group 292"><g id="Group_287" data-name="Group 287"><path id="Path_639" d="M342.083 384.628c6.548 2.229 14.49 1.672 19.226-3.344a17.206 17.206 0 0 0 2.926-19.366c-1.533-3.065-4.04-5.852-3.9-9.2a11.134 11.134 0 0 1 1.951-5.016c1.951-2.926 4.6-5.434 6.409-8.359 1.811-3.065 2.926-6.827 1.533-10.031-2.786-6.27-12.678-6.548-15.6-12.818-1.393-2.926-.836-6.409-.557-9.613.279-3.9.139-7.941-1.672-11.424-1.811-3.344-5.852-5.852-9.613-5.016-4.458.975-6.827 5.991-8.5 10.31-1.115 2.926-2.229 5.712-3.344 8.638-3.065 7.941-6.13 16.579-4.04 24.939 1.672 6.687 6.409 12.121 10.31 17.833.7 1.115 1.533 2.229 1.393 3.622-.139 1.951-2.229 3.344-4.319 3.762-1.951.418-4.18.418-5.852 1.533-2.09 1.254-3.065 3.9-2.926 6.409a13.011 13.011 0 0 0 2.786 6.687c-.004-.135 6.406 7.946 13.789 10.454z" class="cls-4" data-name="Path 639" transform="translate(-325.491 -290.284)"/></g><g id="Group_288" data-name="Group 288" transform="translate(21.608 35.411)"><path id="Path_640" d="M341 315.7v59.63" class="cls-4" data-name="Path 640" transform="translate(-341 -315.7)"/></g><g id="Group_289" data-name="Group 289" transform="translate(21.329 45.024)"><path id="Path_641" d="M340.8 338.9c3.2-4.319 6.548-8.5 9.753-12.818a35.173 35.173 0 0 1 2.926-3.483" class="cls-4" data-name="Path 641" transform="translate(-340.8 -322.6)"/></g><g id="Group_290" data-name="Group 290" transform="translate(11.995 75.396)"><path id="Path_642" d="M334.1 344.4a105.433 105.433 0 0 1 8.5 9.2 3.715 3.715 0 0 1 .975 1.951" class="cls-4" data-name="Path 642" transform="translate(-334.1 -344.4)"/></g><g id="Group_291" data-name="Group 291" transform="translate(12.831 33.878)"><path id="Path_643" d="M334.7 314.6c2.647 3.622 5.712 9.892 8.5 13.932" class="cls-4" data-name="Path 643" transform="translate(-334.7 -314.6)"/></g></g><g id="Group_306" data-name="Group 306" transform="translate(18.006 19.854)"><g id="Group_293" data-name="Group 293"><path id="Path_644" d="M382.281 375.82c7.663-4.18 15.465-8.638 21.038-15.326a9.909 9.909 0 0 0 2.647-4.876 4.965 4.965 0 0 0-1.811-5.016 5.751 5.751 0 0 0-4.319-.557 39.668 39.668 0 0 0-9.892 2.508 50.748 50.748 0 0 0 10.449-15.883c.7-1.811 1.254-4.18-.279-5.294a3.2 3.2 0 0 0-1.951-.557c-8.359-.975-15.883 5.294-21.316 11.7a124.142 124.142 0 0 0 2.09-34.413c-.139-1.393-.418-3.065-1.811-3.483a4.02 4.02 0 0 0-2.508.418c-6.548 3.2-11.146 9.474-13.932 16.3s-3.762 14.072-4.737 21.316a83.612 83.612 0 0 0-9.335-21.038 2.837 2.837 0 0 0-.836-.975c-.7-.279-1.533.279-2.09.975-5.294 6.13-5.991 15.047-4.737 23.128a56.327 56.327 0 0 0 10.728 25.357c2.09 2.786 5.294 8.081 11.982 8.081z" class="cls-20" data-name="Path 644" transform="translate(-338.415 -304.534)"/></g><g id="Group_296" data-name="Group 296" transform="translate(22.271 18.189)"><g id="Group_295" data-name="Group 295"><g id="Group_294" data-name="Group 294"><path id="Path_645" d="M364.571 317.6a12.055 12.055 0 0 1-.7 2.229c-.418 1.393-1.115 3.344-1.811 5.852a174.317 174.317 0 0 0-4.737 19.784 171.022 171.022 0 0 0-2.368 20.2c-.139 2.647-.279 4.737-.279 6.13a14.985 14.985 0 0 1-.139 2.229 14.989 14.989 0 0 1-.139-2.229v-6.13a144.369 144.369 0 0 1 2.229-20.341 139.113 139.113 0 0 1 5.016-19.784q1.254-3.762 2.09-5.852c.42-1.388.698-2.223.838-2.088z" class="cls-15" data-name="Path 645" transform="translate(-354.4 -317.589)"/></g></g></g><g id="Group_299" data-name="Group 299" transform="translate(22.55 39.938)"><g id="Group_298" data-name="Group 298"><g id="Group_297" data-name="Group 297"><path id="Path_646" d="M380.1 333.2a8.174 8.174 0 0 1-.975 1.393c-.836.975-1.811 2.229-2.926 3.622-2.508 3.065-5.852 7.245-9.335 12.121s-6.548 9.335-8.777 12.539c-.975 1.533-1.811 2.786-2.508 3.9a7.131 7.131 0 0 1-.975 1.393s.279-.557.7-1.533c.557-.975 1.393-2.368 2.368-4.04 2.09-3.344 5.016-7.941 8.638-12.678 3.622-4.876 6.966-9.056 9.613-11.982 1.254-1.533 2.368-2.647 3.065-3.483a5.457 5.457 0 0 1 1.112-1.252z" class="cls-15" data-name="Path 646" transform="translate(-354.6 -333.2)"/></g></g></g><g id="Group_302" data-name="Group 302" transform="translate(23.107 53.87)"><g id="Group_301" data-name="Group 301"><g id="Group_300" data-name="Group 300"><path id="Path_647" d="M387.741 343.2a.61.61 0 0 1 .139.418 2.223 2.223 0 0 1-.418 1.115 6.274 6.274 0 0 1-1.393 1.254 11.794 11.794 0 0 1-1.951 1.393 69.4 69.4 0 0 1-11.982 6.687 127.741 127.741 0 0 0-12.26 5.991c-3.065 1.672-4.876 2.926-4.876 2.926s.418-.418 1.115-.975c.836-.557 1.951-1.393 3.483-2.368 3.065-1.811 7.384-3.9 12.26-6.13a82.329 82.329 0 0 0 11.982-6.411 23.622 23.622 0 0 0 1.951-1.393 6.079 6.079 0 0 0 1.393-1.115c.696-.692.416-1.392.557-1.392z" class="cls-15" data-name="Path 647" transform="translate(-355 -343.2)"/></g></g></g><g id="Group_305" data-name="Group 305" transform="translate(8.478 39.241)"><g id="Group_304" data-name="Group 304"><g id="Group_303" data-name="Group 303"><path id="Path_648" d="M358.572 365.859s-.557 0-1.115-.836-.975-2.09-1.672-3.483c-1.254-3.065-3.065-7.245-4.876-11.842s-3.483-8.917-4.6-11.982c-.557-1.533-.975-2.786-1.393-3.622a3.459 3.459 0 0 1-.418-1.393 12.869 12.869 0 0 1 .7 1.254 35.444 35.444 0 0 1 1.533 3.622c1.254 3.065 3.065 7.245 4.876 11.842s3.483 8.917 4.6 11.982c.557 1.533.975 2.786 1.393 3.622.414.557.972.696.972.836z" class="cls-15" data-name="Path 648" transform="translate(-344.5 -332.7)"/></g></g></g></g></g></g></svg>