<svg xmlns="http://www.w3.org/2000/svg" width="60" height="58"><g fill="#fff" data-name="chat (2)"><path d="M54.07 0H15.93A5.936 5.936 0 0 0 10 5.93V12h34.07A7.939 7.939 0 0 1 52 19.929V33h2.07A5.936 5.936 0 0 0 60 27.07V5.93A5.936 5.936 0 0 0 54.07 0Z" data-name="Path 1123" opacity=".446"/><path d="M44.07 14H5.93A5.936 5.936 0 0 0 0 19.929V41.07A5.936 5.936 0 0 0 5.93 47H12v10a1 1 0 0 0 1.74.673L23.442 47H44.07A5.936 5.936 0 0 0 50 41.07V19.929A5.936 5.936 0 0 0 44.07 14ZM12 24.015h14a1 1 0 0 1 0 2H12a1 1 0 1 1 0-2Zm27 14H12a1 1 0 0 1 0-2h27a1 1 0 0 1 0 2Zm0-6H12a1 1 0 0 1 0-2h27a1 1 0 1 1 0 2Z" data-name="Path 1124"/></g></svg>