<?xml version="1.0" encoding="utf-8"?>
<!-- Generator: Adobe Illustrator 23.0.2, SVG Export Plug-In . SVG Version: 6.00 Build 0)  -->
<svg version="1.1" id="Layer_1" xmlns="http://www.w3.org/2000/svg" xmlns:xlink="http://www.w3.org/1999/xlink" x="0px" y="0px"
	 viewBox="0 0 512 512" style="enable-background:new 0 0 512 512;" xml:space="preserve">
<style type="text/css">
	.st0{fill:#FFAC52;}
</style>
<path class="st0" d="M371.2,454H139.5v-46.6c35.3-27.5,74.4-52.1,116.7-74c42.2,21.9,80.8,46.3,114.9,74V454z"/>
<path class="st0" d="M371.2,91.4c-77.6-11.1-154.8-11.1-231.7,0V138c31.2,26.2,71.8,50.5,116.7,74c46.2-25.2,90.3-50.3,114.9-74
	V91.4z"/>
<path d="M404.4,169c10.5-19.1,16-41.2,16-63.7V30h23V0H68.1v30h23v75.3c0,22.5,5.5,44.6,16,63.7c10.5,19.1,25.4,34.5,43.2,44.5
	L226,256l-75.7,42.5c-17.8,10-32.7,25.4-43.2,44.5c-10.5,19.1-16,41.2-16,63.7V482h-23v30h375.3v-30h-23v-75.3
	c0-22.5-5.5-44.6-16-63.7c-10.5-19.1-25.4-34.5-43.2-44.5L285.6,256l75.7-42.5C379,203.6,393.9,188.2,404.4,169z M255.8,273.5
	l13.2,6.7l80.6,45.2c27.4,15.4,44.4,46.5,44.4,81.3v40v12V482H117.5v-35.4v-40c0-34.8,17-65.9,44.4-81.3l80.6-45.2L255.8,273.5z
	 M256.6,272.7 M117.8,113c-0.2-2.5-0.3-5.1-0.3-7.7V30H394v75.3c0,2.6-0.1,5.1-0.3,7.7c-0.2,10.3-2.7,20.3-6.8,30
	c-7.4,18.6-20.4,34.1-37.3,43.6l-93.8,52.6L162,186.6c-16.9-9.5-29.9-25-37.3-43.6C120.3,134,118.2,123.9,117.8,113z"/>
</svg>
