<svg xmlns="http://www.w3.org/2000/svg" width="440.598" height="446.631"><g data-name="Group 577" transform="translate(-191.858 -297.793)"><circle cx="182.057" cy="182.057" r="182.057" fill="#00b4ff" data-name="Ellipse 50" opacity=".48" transform="translate(222.51 315.497)"/><g data-name="Group 548" transform="translate(460.256 380.885)"><rect width="141.081" height="142.015" fill="#57321d" data-name="Rectangle 112" rx="12.637" transform="rotate(-6.28 170.2 -100.136)"/><rect width="147.447" height="148.424" fill="#9a5734" data-name="Rectangle 113" rx="12.637" transform="rotate(-6.243 146.999 8.017)"/><rect width="107.252" height="96.998" fill="#a55c3c" data-name="Rectangle 114" rx="12.637" transform="rotate(-6.243 375.42 -139.166)"/><path fill="#8e4c2f" d="M148.959 149.045 29.894 162.066a13.837 13.837 0 0 1-15.223-11.992c.208-.011.416-.033.624-.055l119.055-13.021a13.838 13.838 0 0 0 12.255-15.256L133.474 1.713l-.033-.263a13.846 13.846 0 0 1 14.642 12.31l13.12 120.029a13.837 13.837 0 0 1-12.244 15.256Z" data-name="Path 1028"/><rect width="137.331" height="138.24" fill="none" stroke="#b78842" stroke-dasharray="3" stroke-linecap="round" stroke-linejoin="round" data-name="Rectangle 115" rx="12.637" transform="rotate(-6.28 190.727 -40.712)"/><rect width="97.027" height="38.557" fill="#b96a42" data-name="Rectangle 116" rx="5.283" transform="rotate(-6.242 622.368 -540.084)"/><path fill="#ad5f3d" d="m157.305 92.874-84.951 9.287a5.767 5.767 0 0 1-6.374-5.114l-.011-.088 84.031-9.2a5.776 5.776 0 0 0 5.125-6.374l-2.929-26.743.91-.1a5.792 5.792 0 0 1 6.385 5.125l2.935 26.82a5.793 5.793 0 0 1-5.121 6.387Z" data-name="Path 1029"/><rect width="90.839" height="31.916" fill="none" stroke="#b78842" stroke-dasharray="3" stroke-linecap="round" stroke-linejoin="round" data-name="Rectangle 117" rx="5.283" transform="rotate(-6.28 649.918 -568.344)"/><circle cx="11.3" cy="11.3" r="11.3" fill="#ccc" data-name="Ellipse 51" transform="rotate(-4.07 1037.114 -997.696)"/><path fill="#e5e5e5" d="M85.32 74.171c2.328 1.476 2.637 4.926.688 7.707s-5.416 3.839-7.745 2.362-2.637-4.926-.689-7.707 5.419-3.838 7.746-2.362Z" data-name="Path 1030"/><path fill="#b2b2b2" d="M86.765 92.806a11.26 11.26 0 0 1-8.607-2.683 11.037 11.037 0 0 0 4.129.318 11.3 11.3 0 0 0 6.177-19.768 11.293 11.293 0 0 1-1.7 22.133Z" data-name="Path 1031"/></g><g data-name="Group 555"><g data-name="Group 551" opacity=".3"><g fill="#151515" data-name="Group 549" transform="translate(200.114 486.436)"><rect width="160.819" height="111.492" data-name="Rectangle 118" rx="4.447" transform="rotate(-8.11 160.57 11.308)"/><rect width="58.449" height="13.698" data-name="Rectangle 119" opacity=".61" rx="1.058" transform="rotate(-8.11 265.06 -93.862)"/><path d="M39.034 109.115a4.392 4.392 0 1 1-4.972-3.721 4.39 4.39 0 0 1 4.972 3.721Z" data-name="Path 1032" opacity=".61"/><circle cx="4.392" cy="4.392" r="4.392" data-name="Ellipse 52" opacity=".61" transform="rotate(-57.25 120.854 16.427)"/><circle cx="4.392" cy="4.392" r="4.392" data-name="Ellipse 53" opacity=".61" transform="rotate(-53.408 133.562 -.848)"/><circle cx="4.392" cy="4.392" r="4.392" data-name="Ellipse 54" opacity=".61" transform="translate(69.42 99.717)"/><circle cx="4.392" cy="4.392" r="4.392" data-name="Ellipse 55" opacity=".61" transform="translate(82.462 97.839)"/></g><g data-name="Group 550"><path fill="#151515" d="m370.362 597.489-149.54 21.522a4.868 4.868 0 0 1-5.515-4.123l-1.128-7.841 124.01-17.859a4.871 4.871 0 0 0 4.123-5.516l-13.374-92.867 25.529-3.673a4.876 4.876 0 0 1 5.516 4.123l14.5 100.718a4.88 4.88 0 0 1-4.121 5.516Z" data-name="Path 1033"/></g></g><g data-name="Group 554" transform="translate(191.859 481.59)"><path fill="#ff6784" d="M169.592 110.41 46.003 128.195l-25.944 3.734a4.878 4.878 0 0 1-5.52-4.129L8.702 87.246.05 27.09a4.86 4.86 0 0 1 4.118-5.509l60.781-8.75 47.322-6.812L153.712.05a4.868 4.868 0 0 1 5.509 4.129l14.5 100.711a4.878 4.878 0 0 1-4.129 5.52Z" data-name="Path 1034"/><g fill="#ff6784" data-name="Group 552" opacity=".32"><path d="M68.749 1.955c.1-.493.186-.986.274-1.489-.263 2.07-.35 2.563-.274 1.489Z" data-name="Path 1035"/><path d="M112.271 6.018c-1.807 16.449-9.9 31.573-20.479 44.365a126.667 126.667 0 0 1-17.358 16.734c-3.034 2.5-6.111 4.972-9.013 7.633-1.687 1.555-3.318 3.154-4.863 4.852-.405.427-.789.865-1.172 1.314-1.982 3.209-3.91 6.319-5.662 9.67-.153.285-.285.526-.383.734l-.011.011c-.044.153-.11.328-.175.526-.58 1.676-1.194 3.34-1.73 5.038a118.456 118.456 0 0 0-3.056 12.137c-.339 1.752-.624 3.515-.942 5.279-.055.285-.1.526-.131.734-.033.23-.055.482-.088.767-.46 4.118-.843 8.257-1.2 12.386l-25.949 3.734a4.878 4.878 0 0 1-5.52-4.129L8.702 87.249a99.675 99.675 0 0 1 10.1-24.192c9.188-15.5 23.48-24.488 35.877-36.907q1.938-1.938 3.767-3.975c.526-.591 2.552-3.121 2.344-2.76a66.528 66.528 0 0 0 4.162-6.582Z" data-name="Path 1036"/></g><rect width="34.059" height="13.698" fill="#ffb42b" data-name="Rectangle 120" rx="1.058" transform="rotate(-8.11 259.147 -80.081)"/><circle cx="4.392" cy="4.392" r="4.392" fill="#c93f60" data-name="Ellipse 56" opacity=".61" transform="translate(22.316 76.994)"/><path fill="#c93f60" d="M44.096 78.883a4.392 4.392 0 1 1-4.973-3.721 4.392 4.392 0 0 1 4.973 3.721Z" data-name="Path 1037" opacity=".61"/><path fill="#c93f60" d="M56.318 76.97a4.393 4.393 0 1 1-4.973-3.721 4.393 4.393 0 0 1 4.973 3.721Z" data-name="Path 1038" opacity=".61"/><path fill="#c93f60" d="M69.359 75.093a4.392 4.392 0 1 1-4.973-3.721 4.392 4.392 0 0 1 4.973 3.721Z" data-name="Path 1039" opacity=".61"/><path fill="#c93f60" d="M82.402 73.215a4.392 4.392 0 1 1-4.973-3.721 4.391 4.391 0 0 1 4.973 3.721Z" data-name="Path 1040" opacity=".61"/><path fill="#c93f60" d="M95.915 71.176a4.392 4.392 0 1 1-4.973-3.721 4.392 4.392 0 0 1 4.973 3.721Z" data-name="Path 1041" opacity=".61"/><g data-name="Group 553"><path fill="#f4567b" d="M169.6 110.41 20.06 131.931a4.869 4.869 0 0 1-5.515-4.121l-1.128-7.841 124.01-17.86a4.869 4.869 0 0 0 4.123-5.515L128.179 3.727 153.708.054a4.876 4.876 0 0 1 5.516 4.123l14.5 100.718a4.882 4.882 0 0 1-4.124 5.515Z" data-name="Path 1042"/></g><rect width="15.447" height="4.02" fill="#c93f60" data-name="Rectangle 121" opacity=".61" rx="1.058" transform="rotate(-8.192 869.377 -142.416)"/><rect width="15.447" height="4.02" fill="#c93f60" data-name="Rectangle 122" opacity=".61" rx="1.058" transform="rotate(-8.192 860.696 -263.642)"/><path fill="#ff8aa6" d="m44.633 27.501-34.5 4.708a3.041 3.041 0 0 1-3.423-2.6 3.042 3.042 0 0 1 2.6-3.423l34.5-4.708a3.04 3.04 0 0 1 3.423 2.6 3.04 3.04 0 0 1-2.6 3.423Z" data-name="Path 1043" opacity=".4"/></g></g><g fill="#151515" data-name="Group 559" opacity=".26" transform="translate(319.476 357.519)"><path d="M182.711 3.549c1.14-1.481 3.716-.753 3.716 1.048v287.304h-.034l-8.664-11.266a2.172 2.172 0 0 0-3.351 0l-7.019 9.1a2.172 2.172 0 0 1-3.35 0l-7-9.091a2.171 2.171 0 0 0-3.352 0l-6.988 9.086a2.172 2.172 0 0 1-3.352 0l-7.021-9.1a2.172 2.172 0 0 0-3.349 0l-7.035 9.1a2.172 2.172 0 0 1-3.35 0l-6.989-9.088a2.173 2.173 0 0 0-3.353 0l-6.989 9.088a2.172 2.172 0 0 1-3.35 0l-7.036-9.1a2.172 2.172 0 0 0-3.349 0l-7.021 9.1a2.171 2.171 0 0 1-3.351 0l-6.99-9.089a2.172 2.172 0 0 0-3.351 0l-7.019 9.1a2.172 2.172 0 0 1-3.35 0l-7.007-9.1a2.172 2.172 0 0 0-3.35 0l-7.02 9.1a2.173 2.173 0 0 1-3.351 0l-7.006-9.1a2.173 2.173 0 0 0-3.351 0l-7.019 9.1a2.173 2.173 0 0 1-3.351 0l-7-9.093a2.173 2.173 0 0 0-3.352 0l-4.878 6.334c-1.14 1.481-3.717.754-3.717-1.048V.963A.834.834 0 0 1 1.499.542l7.208 9.337a2.173 2.173 0 0 0 3.353 0L19.049.791a2.172 2.172 0 0 1 3.351 0l7.032 9.1a2.174 2.174 0 0 0 3.351 0L39.774.8a2.172 2.172 0 0 1 3.352 0l7.018 9.1a2.173 2.173 0 0 0 3.351 0L60.501.8a2.173 2.173 0 0 1 3.351 0l7.021 9.1a2.171 2.171 0 0 0 3.349 0L81.243.8a2.173 2.173 0 0 1 3.351 0L91.6 9.9a2.173 2.173 0 0 0 3.351 0l7.018-9.1a2.172 2.172 0 0 1 3.352 0l6.99 9.089a2.172 2.172 0 0 0 3.351 0l7.019-9.1a2.172 2.172 0 0 1 3.35 0l7.007 9.1a2.172 2.172 0 0 0 3.35 0l7.02-9.1a2.172 2.172 0 0 1 3.35 0l7.007 9.1a2.173 2.173 0 0 0 3.351 0l7.019-9.1a2.173 2.173 0 0 1 3.351 0l7 9.093a2.172 2.172 0 0 0 3.351 0Z" data-name="Path 1044"/><path d="M27.405 34.518h71.181v8.147H27.405z" data-name="Rectangle 123"/><g data-name="Group 558"><g data-name="Group 556"><path d="M27.688 66.086h99.71" data-name="Line 20"/><path d="M27.405 54.121h136.643" data-name="Line 21"/><path d="M27.405 191.596h136.643" data-name="Line 22"/><path d="M27.688 81.871h99.71" data-name="Line 23"/><path d="M27.688 97.655H74.86" data-name="Line 24"/><path d="M27.688 113.439h81.068" data-name="Line 25"/><path d="M27.688 129.223h81.915" data-name="Line 26"/><path d="M27.688 145.007h69.204" data-name="Line 27"/><path d="M27.688 160.791h44.63" data-name="Line 28"/><path d="M27.688 176.575h68.357" data-name="Line 29"/><path d="M27.688 249.123h99.475" data-name="Line 30"/><path d="M27.688 259.487h50.74" data-name="Line 31"/></g><g data-name="Group 557"><path d="M143.075 66.086h21.609" data-name="Line 32"/><path d="M143.075 81.87h21.609" data-name="Line 33"/><path d="M145.193 97.654h19.49" data-name="Line 34"/><path d="M145.193 114.043h19.49" data-name="Line 35"/><path d="M146.931 129.222h17.752" data-name="Line 36"/><path d="M149.686 145.007h14.998" data-name="Line 37"/><path d="M155.012 160.791h9.672" data-name="Line 38"/><path d="M149.87 176.575h14.814" data-name="Line 39"/></g></g><rect width="58.949" height="12.302" data-name="Rectangle 124" rx="4.027" transform="translate(105.099 212.089)"/></g><g data-name="Group 563" transform="translate(313.271 355.694)"><path fill="#ededed" d="M182.712 3.349c1.139-1.4 3.716-.711 3.716.989v271.129h-.034l-8.665-10.632a2.256 2.256 0 0 0-3.351 0l-7.019 8.584a2.256 2.256 0 0 1-3.35 0l-7-8.579a2.256 2.256 0 0 0-3.352 0l-6.989 8.575a2.254 2.254 0 0 1-3.351 0l-7.021-8.586a2.256 2.256 0 0 0-3.349 0l-7.036 8.59a2.256 2.256 0 0 1-3.35 0l-6.989-8.576a2.256 2.256 0 0 0-3.353 0l-6.989 8.576a2.256 2.256 0 0 1-3.35 0l-7.035-8.59a2.256 2.256 0 0 0-3.349 0l-7.021 8.586a2.256 2.256 0 0 1-3.352 0l-6.99-8.577a2.256 2.256 0 0 0-3.351 0l-7.018 8.584a2.257 2.257 0 0 1-3.351 0l-7.007-8.583a2.255 2.255 0 0 0-3.35 0l-7.02 8.585a2.256 2.256 0 0 1-3.35 0l-7.007-8.583a2.255 2.255 0 0 0-3.35 0l-7.02 8.585a2.257 2.257 0 0 1-3.351 0l-7-8.581a2.255 2.255 0 0 0-3.351 0l-4.879 5.977c-1.14 1.4-3.716.711-3.716-.989V.908c0-.68 1.029-.955 1.486-.4l7.209 8.811a2.256 2.256 0 0 0 3.353 0L19.048.744a2.256 2.256 0 0 1 3.351 0l7.033 8.587a2.256 2.256 0 0 0 3.35 0L39.775.752a2.256 2.256 0 0 1 3.351 0l7.018 8.584a2.257 2.257 0 0 0 3.351 0L60.501.753a2.256 2.256 0 0 1 3.351 0l7.021 8.586a2.256 2.256 0 0 0 3.35 0L81.244.753a2.255 2.255 0 0 1 3.35 0l7.007 8.583a2.256 2.256 0 0 0 3.35 0L101.97.752a2.256 2.256 0 0 1 3.351 0l6.99 8.577a2.255 2.255 0 0 0 3.351 0l7.019-8.584a2.255 2.255 0 0 1 3.35 0l7.007 8.583a2.257 2.257 0 0 0 3.351 0l7.019-8.585a2.256 2.256 0 0 1 3.351 0l7.006 8.583a2.257 2.257 0 0 0 3.351 0l7.02-8.585a2.255 2.255 0 0 1 3.35 0l7 8.581a2.256 2.256 0 0 0 3.352 0Z" data-name="Path 1045"/><path fill="#bbebff" d="M27.405 32.575h71.181v7.688H27.405z" data-name="Rectangle 125"/><g fill="none" stroke="#bbebff" stroke-linecap="round" stroke-linejoin="round" data-name="Group 562"><g data-name="Group 560"><path d="M27.687 62.367h99.71" data-name="Line 40"/><path stroke-width="1.5" d="M27.405 51.075h136.643" data-name="Line 41"/><path stroke-width="1.5" d="M27.405 180.813h136.643" data-name="Line 42"/><path d="M27.687 77.263h99.71" data-name="Line 43"/><path d="M27.687 92.159h47.172" data-name="Line 44"/><path d="M27.687 107.054h81.068" data-name="Line 45"/><path d="M27.687 121.95h81.915" data-name="Line 46"/><path d="M27.687 136.846h69.204" data-name="Line 47"/><path d="M27.687 151.742h44.63" data-name="Line 48"/><path d="M27.687 166.638h68.357" data-name="Line 49"/><path d="M27.687 235.103h99.475" data-name="Line 50"/><path d="M27.687 244.884h50.74" data-name="Line 51"/></g><g data-name="Group 561"><path d="M143.075 62.367h21.609" data-name="Line 52"/><path d="M143.075 77.263h21.609" data-name="Line 53"/><path d="M145.193 92.159h19.49" data-name="Line 54"/><path d="M145.193 107.625h19.49" data-name="Line 55"/><path d="M146.931 121.95h17.752" data-name="Line 56"/><path d="M149.686 136.846h14.997" data-name="Line 57"/><path d="M155.012 151.742h9.672" data-name="Line 58"/><path d="M149.87 166.638h14.814" data-name="Line 59"/></g></g><rect width="58.949" height="11.609" fill="#bbebff" data-name="Rectangle 126" rx="4.027" transform="translate(105.099 200.153)"/></g><g fill="#151515" data-name="Group 567" opacity=".129" transform="translate(287.386 335.297)"><path d="M181.784 1.932a2.04 2.04 0 0 1 3.826.717l37.552 316.543h-.033l-10.076-11.385a2.041 2.041 0 0 0-3.329.392l-5.78 10.849a2.04 2.04 0 0 1-3.327.393l-8.144-9.192a2.041 2.041 0 0 0-3.329.4l-5.752 10.836a2.04 2.04 0 0 1-3.328.4l-8.161-9.2a2.04 2.04 0 0 0-3.326.393l-5.8 10.859a2.04 2.04 0 0 1-3.328.391l-8.128-9.188a2.039 2.039 0 0 0-3.329.394l-5.753 10.835a2.04 2.04 0 0 1-3.327.4l-8.176-9.2a2.039 2.039 0 0 0-3.325.4l-5.784 10.853a2.04 2.04 0 0 1-3.328.392l-8.129-9.191a2.04 2.04 0 0 0-3.329.392l-5.78 10.848a2.04 2.04 0 0 1-3.327.394l-8.147-9.2a2.04 2.04 0 0 0-3.327.393l-5.781 10.842a2.04 2.04 0 0 1-3.327.393l-8.147-9.195a2.04 2.04 0 0 0-3.327.393l-5.781 10.85a2.041 2.041 0 0 1-3.328.394l-8.144-9.194a2.041 2.041 0 0 0-3.329.4l-4.016 7.554a2.04 2.04 0 0 1-3.828-.718L.007 20.606a.817.817 0 0 1 1.422-.638l8.379 9.438a2.039 2.039 0 0 0 3.329-.4l5.753-10.835a2.04 2.04 0 0 1 3.327-.4l8.173 9.2a2.04 2.04 0 0 0 3.327-.4l5.755-10.84a2.04 2.04 0 0 1 3.328-.4l8.158 9.194a2.04 2.04 0 0 0 3.327-.4l5.768-10.833a2.041 2.041 0 0 1 3.328-.4l8.161 9.2a2.039 2.039 0 0 0 3.326-.394l5.784-10.852a2.039 2.039 0 0 1 3.327-.394l8.146 9.2a2.041 2.041 0 0 0 3.328-.393l5.78-10.849a2.04 2.04 0 0 1 3.328-.392l8.13 9.191a2.04 2.04 0 0 0 3.328-.392l5.78-10.849a2.041 2.041 0 0 1 3.328-.393l8.146 9.195a2.041 2.041 0 0 0 3.328-.393l5.781-10.85a2.039 2.039 0 0 1 3.327-.394l8.147 9.2a2.039 2.039 0 0 0 3.327-.394l5.781-10.85a2.041 2.041 0 0 1 3.328-.393l8.145 9.193a2.04 2.04 0 0 0 3.328-.394Z" data-name="Path 1046"/><path d="m31.606 54.349 70.685-8.385 1.065 8.976-70.685 8.385z" data-name="Rectangle 127"/><g stroke="#bbebff" stroke-linecap="round" stroke-linejoin="round" data-name="Group 566"><g data-name="Group 564"><path d="m36.013 89.098 99.016-11.746" data-name="Line 60"/><path stroke-width="1.5" d="M34.169 75.948 169.86 59.851" data-name="Line 61"/><path stroke-width="1.5" d="m52.138 227.417 135.691-16.097" data-name="Line 62"/><path d="m38.077 106.489 99.016-11.746" data-name="Line 63"/><path d="m40.14 123.88 46.843-5.557" data-name="Line 64"/><path d="m42.203 141.271 80.503-9.55" data-name="Line 65"/><path d="m44.266 158.662 81.345-9.65" data-name="Line 66"/><path d="m46.329 176.052 68.722-8.152" data-name="Line 67"/><path d="m48.392 193.444 44.319-5.258" data-name="Line 68"/><path d="m50.455 210.835 67.881-8.053" data-name="Line 69"/><path d="m59.938 290.769 98.782-11.719" data-name="Line 70"/><path d="m61.292 302.187 50.387-5.977" data-name="Line 71"/></g><g data-name="Group 565"><path d="m150.597 75.506 21.458-2.546" data-name="Line 72"/><path d="m152.66 92.897 21.458-2.546" data-name="Line 73"/><path d="m156.827 110.038 19.354-2.296" data-name="Line 74"/><path d="m158.969 128.095 19.354-2.296" data-name="Line 75"/><path d="m162.679 144.615 17.629-2.091" data-name="Line 76"/><path d="m167.478 161.682 14.893-1.767" data-name="Line 77"/><path d="m174.829 178.445 9.604-1.139" data-name="Line 78"/><path d="m171.786 196.441 14.711-1.745" data-name="Line 79"/></g></g><rect width="58.949" height="13.649" data-name="Rectangle 128" rx="4.027" transform="rotate(-6.765 2103.437 -995.983)"/></g><g data-name="Group 574" transform="translate(279.953 331.234)"><path fill="#fff" d="M181.768 1.917a2.04 2.04 0 0 1 3.828.714l37.834 316.513h-.034l-10.086-11.382a2.04 2.04 0 0 0-3.328.4l-5.771 10.853a2.04 2.04 0 0 1-3.327.4l-8.151-9.185a2.04 2.04 0 0 0-3.328.4l-5.743 10.841a2.041 2.041 0 0 1-3.328.4l-8.169-9.191a2.041 2.041 0 0 0-3.326.4l-5.787 10.864a2.04 2.04 0 0 1-3.327.393l-8.137-9.182a2.04 2.04 0 0 0-3.329.4l-5.743 10.841a2.041 2.041 0 0 1-3.327.4l-8.188-9.204a2.04 2.04 0 0 0-3.325.4l-5.775 10.857a2.04 2.04 0 0 1-3.328.394l-8.137-9.183a2.04 2.04 0 0 0-3.328.4l-5.771 10.853a2.04 2.04 0 0 1-3.327.4l-8.155-9.188a2.041 2.041 0 0 0-3.327.4l-5.773 10.855a2.039 2.039 0 0 1-3.327.4l-8.155-9.187a2.039 2.039 0 0 0-3.327.4l-5.771 10.855a2.041 2.041 0 0 1-3.327.4l-8.152-9.186a2.041 2.041 0 0 0-3.328.4l-4.01 7.558a2.04 2.04 0 0 1-3.828-.714L.007 20.753a.817.817 0 0 1 1.422-.64l8.387 9.43a2.04 2.04 0 0 0 3.33-.4l5.742-10.841a2.04 2.04 0 0 1 3.327-.4l8.182 9.191a2.039 2.039 0 0 0 3.326-.4l5.745-10.845a2.041 2.041 0 0 1 3.328-.4l8.165 9.187a2.04 2.04 0 0 0 3.327-.4l5.759-10.852a2.04 2.04 0 0 1 3.327-.4l8.169 9.191a2.04 2.04 0 0 0 3.326-.4l5.774-10.857a2.041 2.041 0 0 1 3.327-.4l8.155 9.188a2.04 2.04 0 0 0 3.327-.4l5.77-10.853a2.04 2.04 0 0 1 3.328-.4l8.138 9.183a2.039 2.039 0 0 0 3.328-.4l5.771-10.853a2.041 2.041 0 0 1 3.327-.4l8.155 9.188a2.04 2.04 0 0 0 3.327-.4l5.771-10.855a2.04 2.04 0 0 1 3.327-.4l8.155 9.188a2.041 2.041 0 0 0 3.327-.4l5.773-10.856a2.04 2.04 0 0 1 3.327-.4l8.152 9.186a2.041 2.041 0 0 0 3.328-.4Z" data-name="Path 1047"/><path fill="#f7f7f7" d="m223.43 319.138-.033.011-10.086-11.39a2.042 2.042 0 0 0-3.329.405l-5.771 10.853a2.046 2.046 0 0 1-3.329.394l-8.148-9.188a2.042 2.042 0 0 0-3.329.405l-5.75 10.831a2.031 2.031 0 0 1-3.318.405l-8.17-9.188a2.04 2.04 0 0 0-3.329.394l-5.782 10.864a2.041 2.041 0 0 1-3.329.394l-8.137-9.177a2.035 2.035 0 0 0-3.329.394l-5.75 10.842a2.03 2.03 0 0 1-3.318.394l-8.192-9.188a2.036 2.036 0 0 0-3.318.394l-5.771 10.864a2.046 2.046 0 0 1-3.329.394l-8.137-9.188a2.046 2.046 0 0 0-3.329.394l-5.775 10.851a2.042 2.042 0 0 1-3.329.405l-8.159-9.188a2.03 2.03 0 0 0-3.318.394l-5.782 10.853a2.031 2.031 0 0 1-3.318.394l-8.159-9.188a2.046 2.046 0 0 0-3.329.394l-5.771 10.864a2.046 2.046 0 0 1-3.329.394l-8.148-9.188a2.046 2.046 0 0 0-3.329.394l-4.008 7.568a2.044 2.044 0 0 1-3.833-.723l-3.142-26.292 1.446-2.727a2.046 2.046 0 0 1 3.329-.394l8.159 9.188a2.031 2.031 0 0 0 3.318-.394l5.782-10.853a2.03 2.03 0 0 1 3.318-.394l8.159 9.188a2.042 2.042 0 0 0 3.329-.405l5.771-10.853a2.046 2.046 0 0 1 3.329-.394l8.137 9.188a2.046 2.046 0 0 0 3.329-.394l5.771-10.864a2.036 2.036 0 0 1 3.318-.394l8.192 9.188a2.03 2.03 0 0 0 3.318-.394l5.75-10.842a2.036 2.036 0 0 1 3.329-.394l8.137 9.177a2.041 2.041 0 0 0 3.329-.394l5.782-10.864a2.04 2.04 0 0 1 3.329-.394l8.17 9.188a2.031 2.031 0 0 0 3.318-.405l5.75-10.831a2.042 2.042 0 0 1 3.329-.405l8.148 9.188a2.046 2.046 0 0 0 3.329-.394l5.771-10.853a2.042 2.042 0 0 1 3.329-.405l10.086 11.39.033-.011L158.619 9.219l4.326-8.137a2.041 2.041 0 0 1 3.329-.394l8.159 9.188a2.042 2.042 0 0 0 3.329-.405l4.008-7.557a2.037 2.037 0 0 1 3.822.712Z" data-name="Path 1048"/><g data-name="Group 573"><g data-name="Group 572"><g data-name="Group 570"><path fill="none" stroke="#00b4ff" stroke-miterlimit="10" d="m36.074 89.213 99.006-11.835" data-name="Line 80"/><g data-name="Group 568"><path fill="none" stroke="#00b4ff" stroke-miterlimit="10" d="m34.218 76.064 135.677-16.218" data-name="Line 81"/></g><g data-name="Group 569"><path fill="none" stroke="#00b4ff" stroke-miterlimit="10" d="m52.322 227.517 135.677-16.218" data-name="Line 82"/></g><path fill="none" stroke="#00b4ff" stroke-miterlimit="10" d="m38.153 106.602 99.006-11.835" data-name="Line 83"/><path fill="none" stroke="#00b4ff" stroke-miterlimit="10" d="m40.231 123.991 46.838-5.599" data-name="Line 84"/><path fill="none" stroke="#00b4ff" stroke-miterlimit="10" d="m42.31 141.38 80.495-9.622" data-name="Line 85"/><path fill="none" stroke="#00b4ff" stroke-miterlimit="10" d="m44.389 158.768 81.336-9.722" data-name="Line 86"/><path fill="none" stroke="#00b4ff" stroke-miterlimit="10" d="m46.467 176.158 68.715-8.214" data-name="Line 87"/><path fill="none" stroke="#00b4ff" stroke-miterlimit="10" d="m48.546 193.547 44.314-5.297" data-name="Line 88"/><path fill="none" stroke="#00b4ff" stroke-miterlimit="10" d="m50.624 210.936 67.873-8.113" data-name="Line 89"/><path fill="none" stroke="#00b4ff" stroke-miterlimit="10" d="m60.178 290.862 98.772-11.807" data-name="Line 90"/><path fill="none" stroke="#00b4ff" stroke-miterlimit="10" d="m61.543 302.279 50.382-6.022" data-name="Line 91"/></g><g fill="none" stroke="#00b4ff" stroke-miterlimit="10" data-name="Group 571"><path d="m150.646 75.518 21.456-2.565" data-name="Line 92"/><path d="m152.725 92.907 21.456-2.565" data-name="Line 93"/><path d="m156.907 110.044 19.352-2.313" data-name="Line 94"/><path d="m159.065 128.099 19.352-2.313" data-name="Line 95"/><path d="m162.79 144.616 17.627-2.107" data-name="Line 96"/><path d="m167.603 161.678 14.891-1.78" data-name="Line 97"/><path d="m174.97 178.436 9.603-1.148" data-name="Line 98"/><path d="m171.943 196.435 14.709-1.758" data-name="Line 99"/></g></g></g><rect width="58.949" height="13.649" fill="#00b4ff" data-name="Rectangle 129" rx="4.027" transform="rotate(-6.816 2088.498 -989.25)"/></g><g fill="#151515" data-name="Group 575" opacity=".3"><path d="M507.34 635.891a14.886 14.886 0 0 1-18.783-9.5l-27.83-84.866c-5.118-15.188-.776-25.829 7.034-28.391 7.812-2.562 16.988 6.77 21.254 19.114l27.831 84.856a14.885 14.885 0 0 1-9.506 18.787Z" data-name="Path 1049"/><path d="M504.428 587.639s15.39-23.969 37.844-6.812c0 0 18.922-16.9 34.312 3.532 0 0 19.679-14.633 28.256 13.876 0 0 21.613 77.791-42.3 99.656 0 0-45.413 16.483-87.8-43.058 0 0-12.7-16.572-26.9-26.647a7.7 7.7 0 0 1 2.5-13.725c9.621-2.631 24.374-1.7 43.92 13.8Z" data-name="Path 1050"/><path d="M573.389 581.121s9.377 6.518 8.746 22.875" data-name="Path 1051"/><path d="M540.338 579.356s9.377 6.517 8.746 22.875" data-name="Path 1052"/><path d="M506.554 585.166s5.75 6.845 7.622 22.814" data-name="Path 1053"/><path d="m532.414 687.269 58.43-20.436 17.033 48.702a8.956 8.956 0 0 1-5.5 11.41l-41.518 14.522a8.956 8.956 0 0 1-11.41-5.496l-17.035-48.702Z" data-name="Rectangle 130"/><path d="M498.613 633.011a45.834 45.834 0 0 0-13.826-10.883" data-name="Path 1054"/></g><g data-name="Group 576"><path fill="#ffc4a4" d="M599.373 714.186a9.8 9.8 0 0 1-6.012 12.5l-39.908 13.948a9.8 9.8 0 0 1-12.5-6.012l-12.633-36.118a70.448 70.448 0 0 1-11.412-2.935c-15.058-5.213-32.975-16.844-50.377-41.287 0 0-12.7-16.57-26.908-26.645a7.7 7.7 0 0 1 2.5-13.722c9.615-2.628 24.378-1.7 43.916 13.8l10.174-40.619s15.4-23.973 37.849-6.812c0 0 9.835-8.794 21.093-6.034 4.359 1.062 8.926 3.855 13.219 9.561 0 0 19.68-14.631 28.255 13.876 0 0 12.923 46.544-10.8 77.745Z" data-name="Path 1055"/><path fill="#ffb08d" d="M599.373 714.186a9.8 9.8 0 0 1-6.012 12.5l-39.908 13.952a9.788 9.788 0 0 1-12.112-5.082 9.437 9.437 0 0 0 1.522-.394l39.908-13.952a9.813 9.813 0 0 0 6.023-12.5l-13.558-38.754c23.721-31.2 10.809-77.745 10.809-77.745-1.665-5.531-3.756-9.44-6.034-12.145 5.826.2 12.507 3.943 16.614 17.621 0 0 12.923 46.544-10.8 77.745Z" data-name="Path 1056"/><path fill="#ffa5a1" d="M499.126 635.343a14.887 14.887 0 0 1-18.783-9.5l-27.83-84.866c-5.118-15.188-.776-25.829 7.034-28.391 7.812-2.562 16.988 6.77 21.254 19.114l27.83 84.856a14.885 14.885 0 0 1-9.505 18.787Z" data-name="Path 1057"/><path fill="#ffc4a4" d="M499.126 635.343a14.887 14.887 0 0 1-18.783-9.5l-27.83-84.866c-5.118-15.188-.776-25.829 7.034-28.391 7.812-2.562 16.988 6.77 21.254 19.114l27.83 84.856a14.885 14.885 0 0 1-9.505 18.787Z" data-name="Path 1058"/><path fill="none" stroke="#ffb08d" stroke-miterlimit="10" stroke-width="3" d="M565.175 580.573s9.377 6.518 8.746 22.875" data-name="Path 1059"/><path fill="none" stroke="#ffb08d" stroke-miterlimit="10" stroke-width="3" d="M532.124 578.808s9.377 6.517 8.746 22.875" data-name="Path 1060"/><path fill="#ffd0bb" d="M559.345 606.712c0 38.9-17.282 72.587-42.437 88.861-15.058-5.213-32.975-16.843-50.377-41.287a167.549 167.549 0 0 0-14.073-15.7 107.634 107.634 0 0 0-12.835-10.941 7.546 7.546 0 0 1-2.968-8.268 7.642 7.642 0 0 1 5.465-5.454c8.487-2.322 20.983-1.862 37.235 8.936l-26.842-81.885c-3.088-9.156-2.738-16.657-.252-21.739.077-.186.175-.372.274-.559a12.4 12.4 0 0 1 7.009-6.089 9.774 9.774 0 0 1 7.557.832 18.531 18.531 0 0 1 4.194 2.946c3.888 3.548 7.338 9.057 9.506 15.332l17.344 52.871c4.786-5.673 18.136-17.884 35.921-4.282 0 0 9.835-8.794 21.093-6.034a125.935 125.935 0 0 1 4.186 32.46Z" data-name="Path 1061" opacity=".346"/><path fill="#ffd0bb" stroke="#f99595" stroke-miterlimit="10" stroke-width="3" d="M498.34 584.618s5.75 6.845 7.622 22.814" data-name="Path 1062" opacity=".346"/><path fill="#ffd0bb" stroke="#f99595" stroke-miterlimit="10" stroke-width="3" d="M492.909 635.542s-7.918-9.789-16.336-13.963" data-name="Path 1063" opacity=".346"/><path fill="#ffdfd2" d="M495.225 623.816c-3.3 1.084-7.223-1.819-8.752-6.484l-16.62-50.678c-3.034-9.077-1.673-15.028 1.631-16.111 3.3-1.083 7.822 4.8 10.335 12.187l16.619 50.678c1.529 4.665.092 9.325-3.213 10.408Z" data-name="Path 1064" opacity=".3"/></g><rect width="39.973" height="10.404" fill="#d38262" data-name="Rectangle 131" rx="3.488" transform="rotate(-5.097 5391.803 -6121.546)"/><text fill="#00b4ff" font-family="Quicksand-Bold, Quicksand" font-size="26" font-weight="700" transform="rotate(-6.431 3677.984 -2557.235)"><tspan x="0" y="0">Receipt</tspan></text><circle cx="9.086" cy="9.086" r="9.086" fill="#4dceff" data-name="Ellipse 57" transform="translate(254.936 434.399)"/><path fill="#fff" d="M544.847 368.669a5.5 5.5 0 1 1-5.5-5.5 5.5 5.5 0 0 1 5.5 5.5Z" data-name="Path 1065" opacity=".378"/><circle cx="8.847" cy="8.847" r="8.847" fill="#00b4ff" data-name="Ellipse 58" transform="translate(203.423 381.638)"/><circle cx="6.011" cy="6.011" r="6.011" fill="#4dceff" data-name="Ellipse 59" transform="translate(237.568 469.274)"/><circle cx="7.69" cy="7.69" r="7.69" fill="#4dceff" data-name="Ellipse 60" transform="translate(327.06 679.642)"/><circle cx="15.657" cy="15.657" r="15.657" fill="#4dceff" data-name="Ellipse 61" transform="translate(435.375 676.656)"/><path fill="#4dceff" d="M538.68 566.501a4.338 4.338 0 1 1-4.338-4.338 4.339 4.339 0 0 1 4.338 4.338Z" data-name="Path 1066"/><circle cx="13.185" cy="13.185" r="13.185" fill="#4dceff" data-name="Ellipse 62" transform="rotate(-45 620.136 -416.75)"/><circle cx="13.495" cy="13.495" r="13.495" fill="#00b4ff" data-name="Ellipse 63" transform="translate(233.31 653.045)"/><path fill="#00b4ff" d="M291.067 680.047a6.3 6.3 0 1 1-6.3-6.3 6.3 6.3 0 0 1 6.3 6.3Z" data-name="Path 1067"/><circle cx="9.092" cy="9.092" r="9.092" fill="#00b4ff" data-name="Ellipse 64" transform="translate(442.566 684.494)"/><circle cx="6.322" cy="6.322" r="6.322" fill="#00b4ff" data-name="Ellipse 65" transform="translate(538.865 314.38)"/><circle cx="11.28" cy="11.28" r="11.28" fill="#00b4ff" data-name="Ellipse 66" transform="translate(566.869 329.666)"/><circle cx="8.663" cy="8.663" r="8.663" fill="#00b4ff" data-name="Ellipse 67" transform="rotate(-22.63 1705.144 -1242.865)"/></g></svg>