<svg xmlns="http://www.w3.org/2000/svg" xmlns:xlink="http://www.w3.org/1999/xlink" width="264" height="264"><defs><linearGradient id="a" x1=".444" x2=".444" y1="2.08" y2=".698" gradientUnits="objectBoundingBox"><stop offset="0" stop-color="gray" stop-opacity=".251"/><stop offset=".54" stop-color="gray" stop-opacity=".122"/><stop offset="1" stop-color="gray" stop-opacity=".102"/></linearGradient><linearGradient xlink:href="#a" id="b" x1=".027" x2=".027" y1="4.202" y2="3.205"/><linearGradient xlink:href="#a" id="c" x1=".684" x2=".684" y1=".372" y2="-.628"/><linearGradient xlink:href="#a" id="d" x1="1.326" x2="1.326" y1="-2.088" y2="-3.089"/><linearGradient xlink:href="#a" id="e" x1=".5" x2=".5" y1="1" y2="0"/><linearGradient xlink:href="#a" id="f" x1="-8.568" x2="-8.568" y1="1" y2="0"/><linearGradient xlink:href="#a" id="g" x1=".5" x2=".5" y1="1" y2="0"/></defs><g data-name="Group 542"><g data-name="Group 541" transform="translate(-280 -299)"><circle cx="132" cy="132" r="132" fill="#49525a" data-name="Ellipse 46" opacity=".326" transform="translate(280 299)"/></g><g transform="translate(-.078 19.135)"><g data-name="Group 522" opacity=".5"><path fill="url(#a)" d="M0 0h165.113v119.501H0z" data-name="Rectangle 74" transform="rotate(-81.42 155.503 11.196)"/></g><path fill="#f5f5f5" d="M123.101 161.11 147.19 1.453l115.157 17.375-24.088 159.657z" data-name="Rectangle 75"/><path fill="#e0e0e0" d="m152.078 73.006 83.113 12.54-.76 5.038-83.113-12.54z" data-name="Rectangle 76"/><path fill="#e0e0e0" d="m150.178 85.597 83.113 12.54-.76 5.038-83.113-12.54z" data-name="Rectangle 77"/><path fill="#e0e0e0" d="m198.453 38.787 42.817 6.46-.76 5.038-42.817-6.46z" data-name="Rectangle 78"/><path fill="#6c63ff" d="m200.332 51.952 35.262 5.32-.76 5.038-35.262-5.32z" data-name="Rectangle 79"/><path fill="#e0e0e0" d="m148.276 98.191 73.041 11.02-.76 5.038-73.041-11.02z" data-name="Rectangle 80"/><path fill="#e0e0e0" d="m146.374 110.785 62.965 9.5-.76 5.038-62.965-9.5z" data-name="Rectangle 81"/><path fill="#e0e0e0" d="m144.475 123.377 55.41 8.36-.76 5.038-55.41-8.36z" data-name="Rectangle 82"/><path fill="#e0e0e0" d="m142.575 135.971 70.52 10.64-.76 5.038-70.52-10.64z" data-name="Rectangle 83"/><path fill="#6c63ff" d="m140.677 148.563 27.703 4.18-.76 5.038-27.703-4.18z" data-name="Rectangle 84"/><g data-name="Group 523" opacity=".5"><path fill="url(#b)" d="M714.72 182.3a17 17 0 1 0-28.295 10v.075a5.817 5.817 0 0 0 1.722 1.508l.033-.072c.685.793 3.837 2.374 7.647 2.938h.084a15.556 15.556 0 0 0 7.583-.564s.027-.042.072-.121a6.058 6.058 0 0 0 1.75-.848l.054-.187a16.983 16.983 0 0 0 9.35-12.729Z" data-name="Path 991" transform="translate(-524.383 -136.585)"/></g><circle cx="16.491" cy="16.491" r="16.491" fill="#f5f5f5" data-name="Ellipse 29" transform="rotate(-81.42 110.12 -61.684)"/><path fill="#fda57d" d="M165.931 47.993s-3.922-.268-3.973 6.965a5.643 5.643 0 0 0 1.673 1.458l3.3-7.068Z" data-name="Path 992"/><path fill="#fda57d" d="M178.542 49.897s3.837.9 1.744 7.828a5.644 5.644 0 0 1-2.027.9l-1.071-7.718Z" data-name="Path 993"/><path fill="#333" d="M167.853 36.422s-2.661 5.1-3.593 4.443c0 0 8.464 9.873 18.325 2.763a25.914 25.914 0 0 0-2.962-5.43Z" data-name="Path 994"/><circle cx="7.309" cy="7.309" r="7.309" fill="#333" data-name="Ellipse 30" transform="rotate(-81.42 107.92 -74.883)"/><path d="m178.467 49.884-12.609-1.9-1.937 4.866s-1.044 2.229-.338 3.388 8.383 4.7 14.781 2.413a6.651 6.651 0 0 0 .8-4.178c-.317-2.455-.142-.193-.142-.193Z" data-name="Path 995" opacity=".1"/><path d="m178.636 49.911-12.609-1.9-1.933 4.86s-1.044 2.229-.338 3.388 8.383 4.7 14.781 2.413a6.651 6.651 0 0 0 .8-4.178c-.317-2.455-.142-.193-.142-.193Z" data-name="Path 996" opacity=".1"/><path fill="#fdd835" d="m178.543 49.896-12.609-1.9-1.937 4.866s-1.044 2.229-.338 3.388 8.383 4.7 14.781 2.413a6.651 6.651 0 0 0 .8-4.178c-.317-2.455-.142-.193-.142-.193Z" data-name="Path 997"/><path d="m170.426 44.408 5.043.76-.686 4.55a2.03 2.03 0 0 1-2.31 1.704l-1.029-.155a2.03 2.03 0 0 1-1.704-2.31l.686-4.549Z" data-name="Path 998" opacity=".1"/><path fill="#fda57d" d="m170.454 44.221 5.043.76-.686 4.55a2.03 2.03 0 0 1-2.31 1.704l-1.029-.155a2.03 2.03 0 0 1-1.704-2.31Z" data-name="Path 999"/><path d="M170.359 44.934a7.339 7.339 0 0 0 5.041.775l.094-.618-5.044-.76Z" data-name="Path 1000" opacity=".1"/><circle cx="7.309" cy="7.309" r="7.309" fill="#fda57d" data-name="Ellipse 31" transform="rotate(-81.42 108.712 -73.961)"/><path fill="#333" d="m167.433 34.639 13.785 2.078s-.338-5.731-5.6-6.175-8.185 4.097-8.185 4.097Z" data-name="Path 1001"/><ellipse cx="1.276" cy=".679" fill="#fda57d" data-name="Ellipse 32" rx="1.276" ry=".679" transform="rotate(-81.42 105.231 -77.384)"/><ellipse cx="1.276" cy=".679" fill="#fda57d" data-name="Ellipse 33" rx="1.276" ry=".679" transform="rotate(-81.42 113.531 -84.525)"/><path d="m167.412 34.827 13.785 2.078s-.338-5.731-5.6-6.175-8.185 4.097-8.185 4.097Z" data-name="Path 1002" opacity=".1"/><g data-name="Group 524" opacity=".5"><path fill="url(#c)" d="M0 0h119.841v165.583H0z" data-name="Rectangle 85" transform="rotate(-9.25 264.682 19.455)"/></g><path fill="#f5f5f5" d="m1.929 43.276 114.927-18.84 26.12 159.337-114.926 18.84z" data-name="Rectangle 86"/><path fill="#e0e0e0" d="m28.582 109.853 82.947-13.598.824 5.028-82.947 13.598z" data-name="Rectangle 87"/><path fill="#e0e0e0" d="m30.642 122.422 82.947-13.598.824 5.028-82.947 13.598z" data-name="Rectangle 88"/><path fill="#e0e0e0" d="m62.207 63.043 42.732-7.005.824 5.028L63.03 68.07z" data-name="Rectangle 89"/><path fill="#6c63ff" d="m68.036 74.994 35.191-5.77.825 5.029-35.192 5.769z" data-name="Rectangle 90"/><path fill="#e0e0e0" d="m32.702 134.99 72.895-11.95.824 5.028-72.895 11.95z" data-name="Rectangle 91"/><path fill="#e0e0e0" d="m34.762 147.555 62.84-10.302.823 5.028-62.839 10.302z" data-name="Rectangle 92"/><path fill="#e0e0e0" d="m36.822 160.125 55.299-9.065.824 5.027-55.299 9.066z" data-name="Rectangle 93"/><path fill="#e0e0e0" d="m38.883 172.69 70.38-11.538.824 5.028-70.38 11.538z" data-name="Rectangle 94"/><path fill="#6c63ff" d="m40.945 185.26 27.648-4.532.824 5.027-27.648 4.533z" data-name="Rectangle 95"/><g data-name="Group 525" opacity=".5"><path fill="url(#d)" d="M274.414 277.579A17.478 17.478 0 1 0 249.89 296.3l.024.075a5.981 5.981 0 0 0 2.16.923v-.081c.92.561 4.5 1.113 8.41.462h.084a15.984 15.984 0 0 0 7.24-2.947.5.5 0 0 1 .03-.139 6.226 6.226 0 0 0 1.445-1.382v-.2a17.459 17.459 0 0 0 5.131-15.432Z" data-name="Path 1003" transform="translate(-216.257 -206.537)"/></g><circle cx="16.953" cy="16.953" r="16.953" fill="#f5f5f5" data-name="Ellipse 34" transform="rotate(-9.31 378.407 -101.736)"/><path fill="#4d8af0" d="M34.744 81.597s-3.921.98-1.689 8.069a5.8 5.8 0 0 0 2.1.9l1-7.958Z" data-name="Path 1004"/><path fill="#4d8af0" d="M47.678 79.476s4.039-.329 4.175 7.11a5.8 5.8 0 0 1-1.7 1.508l-3.487-7.221Z" data-name="Path 1005"/><circle cx="7.514" cy="7.514" r="7.514" fill="#333" data-name="Ellipse 35" transform="rotate(-9.31 395.423 -157.293)"/><path fill="#4d8af0" d="m47.604 79.488-12.935 2.11-.359 5.372s-.3 2.513.739 3.421 9.689 1.955 15.206-2.317a6.839 6.839 0 0 0-.534-4.341c-1.086-2.3-.2-.145-.2-.145Z" data-name="Path 1006"/><path fill="#4d8af0" d="M47.775 79.461 34.84 81.573l-.359 5.372s-.3 2.513.739 3.421 9.689 1.955 15.206-2.317a6.838 6.838 0 0 0-.534-4.341c-1.086-2.3-.2-.145-.2-.145Z" data-name="Path 1007"/><path fill="#4d8af0" d="m47.679 79.476-12.935 2.112-.359 5.381s-.3 2.513.739 3.421 9.689 1.955 15.206-2.317a6.838 6.838 0 0 0-.534-4.341c-1.086-2.3-.2-.145-.2-.145Z" data-name="Path 1008"/><path d="m38.009 76.651 5.177-.849.774 4.724a2.03 2.03 0 0 1-1.675 2.332l-1.17.192a2.03 2.03 0 0 1-2.332-1.675l-.774-4.724Z" data-name="Path 1009" opacity=".1"/><path fill="#fda57d" d="m37.979 76.459 5.177-.849.774 4.724a2.03 2.03 0 0 1-1.675 2.332l-1.17.192a2.03 2.03 0 0 1-2.332-1.675l-.774-4.724Z" data-name="Path 1010"/><path d="M38.105 77.205a7.541 7.541 0 0 0 5.176-.833l-.106-.636-5.17.85Z" data-name="Path 1011" opacity=".1"/><circle cx="7.514" cy="7.514" r="7.514" fill="#fda57d" data-name="Ellipse 36" transform="rotate(-9.31 405.442 -158.122)"/><path d="m32.026 68.246 14.144-2.317s-2.145-5.514-7.43-4.271-6.714 6.588-6.714 6.588Z" data-name="Path 1012" opacity=".1"/><path fill="#333" d="m31.993 68.056 14.156-2.32s-2.145-5.514-7.43-4.271-6.726 6.591-6.726 6.591Z" data-name="Path 1013"/><ellipse cx=".702" cy="1.316" fill="#fda57d" data-name="Ellipse 37" rx=".702" ry="1.316" transform="rotate(-9.25 449.46 -159.881)"/><ellipse cx=".7" cy="1.312" fill="#fda57d" data-name="Ellipse 38" rx=".7" ry="1.312" transform="rotate(-9.31 434.482 -247.854)"/><g data-name="Group 526" opacity=".5"><path fill="url(#e)" d="M0 0h119.501v165.113H0z" data-name="Rectangle 96" transform="translate(85.484 49.93)"/></g><path fill="#fff" d="M87.004 51.146h116.461V212.61H87.004z" data-name="Rectangle 97"/><g data-name="Group 527" opacity=".5"><path fill="url(#f)" d="M502 326.63a17.87 17.87 0 1 1 27.839 14.832v.078a6.117 6.117 0 0 1-2.027 1.291l-.024-.078c-.836.718-4.359 1.867-8.407 1.855h-.088a16.423 16.423 0 0 1-7.795-1.777s-.021-.048-.054-.136a6.366 6.366 0 0 1-1.686-1.155l-.027-.2A17.851 17.851 0 0 1 502 326.63Z" data-name="Path 1014" transform="translate(-399.443 -238.542)"/></g><circle cx="17.333" cy="17.333" r="17.333" fill="#f5f5f5" data-name="Ellipse 39" transform="translate(103.091 70.756)"/><path fill="#be7c5e" d="M113.625 94.692s-4.13.335-3.038 7.876a5.933 5.933 0 0 0 1.967 1.252l2.323-7.864Z" data-name="Path 1015"/><path fill="#be7c5e" d="M127.027 94.692s4.13.335 3.038 7.876a5.933 5.933 0 0 1-1.967 1.252l-2.314-7.888Z" data-name="Path 1016"/><path fill="#333" d="M113.803 82.357s-.317.926-.769 2c-.983 2.341.139 11.336 2.492 12.3a13.36 13.36 0 0 0 9.716.449c3.134-1.143 4.1-11.381 1.885-13.876-.259-.3-.531-.582-.814-.866Z" data-name="Path 1017"/><circle cx="7.683" cy="7.683" r="7.683" fill="#333" data-name="Ellipse 40" transform="translate(112.753 74.14)"/><path d="M126.949 94.692h-13.4l-1.252 5.36s-.736 2.483.178 3.575 9.451 3.575 15.725.178a6.993 6.993 0 0 0 .178-4.467c-.715-2.5-.178-.178-.178-.178Z" data-name="Path 1018" opacity=".1"/><path d="M127.127 94.692h-13.409l-1.252 5.36s-.736 2.483.178 3.575 9.451 3.575 15.721.175a6.992 6.992 0 0 0 .178-4.467c-.715-2.5-.178-.178-.178-.178Z" data-name="Path 1019" opacity=".1"/><path fill="#3ad29f" d="M127.027 94.692h-13.4l-1.252 5.36s-.736 2.483.178 3.575 9.451 3.575 15.725.178a6.992 6.992 0 0 0 .178-4.467c-.715-2.5-.178-.178-.178-.178Z" data-name="Path 1020"/><path d="M117.736 90.242h5.36v4.941a2.03 2.03 0 0 1-2.03 2.03h-1.3a2.03 2.03 0 0 1-2.03-2.03v-4.941Z" data-name="Path 1021" opacity=".1"/><path fill="#be7c5e" d="M117.736 90.043h5.36v4.941a2.03 2.03 0 0 1-2.03 2.03h-1.3a2.03 2.03 0 0 1-2.03-2.03v-4.941Z" data-name="Path 1022"/><path d="M117.746 90.804a7.716 7.716 0 0 0 5.36 0v-.658h-5.36Z" data-name="Path 1023" opacity=".1"/><circle cx="7.683" cy="7.683" r="7.683" fill="#be7c5e" data-name="Ellipse 41" transform="translate(112.753 75.808)"/><path fill="#333" d="M113.088 80.575h14.654s-1.252-5.918-6.79-5.538-7.864 5.538-7.864 5.538Z" data-name="Path 1024"/><ellipse cx=".715" cy="1.339" fill="#be7c5e" data-name="Ellipse 42" rx=".715" ry="1.339" transform="translate(112.198 81.826)"/><ellipse cx=".715" cy="1.339" fill="#be7c5e" data-name="Ellipse 43" rx=".715" ry="1.339" transform="translate(127.208 81.826)"/><path d="M113.088 80.771h14.654s-1.252-5.918-6.79-5.538-7.864 5.538-7.864 5.538Z" data-name="Path 1025" opacity=".1"/><path fill="#e0e0e0" d="M102.533 121.158h84.054v5.095h-84.054z" data-name="Rectangle 98"/><path fill="#e0e0e0" d="M102.533 133.894h84.054v5.095h-84.054z" data-name="Rectangle 99"/><path fill="#e0e0e0" d="M143.289 80.405h43.302V85.5h-43.302z" data-name="Rectangle 100"/><path fill="#6c63ff" d="M147.108 93.141h35.661v5.095h-35.661z" data-name="Rectangle 101"/><path fill="#e0e0e0" d="M102.533 146.629h73.868v5.095h-73.868z" data-name="Rectangle 102"/><path fill="#e0e0e0" d="M102.533 159.365h63.678v5.095h-63.678z" data-name="Rectangle 103"/><path fill="#e0e0e0" d="M102.533 172.104h56.037v5.095h-56.037z" data-name="Rectangle 104"/><path fill="#e0e0e0" d="M102.533 184.839h71.319v5.095h-71.319z" data-name="Rectangle 105"/><path fill="#6c63ff" d="M102.533 197.575h28.017v5.095h-28.017z" data-name="Rectangle 106"/><g data-name="Group 528" opacity=".5" transform="translate(171.469 174.722)"><circle cx="25.456" cy="25.456" r="25.456" fill="url(#g)" data-name="Ellipse 44"/></g><circle cx="23.957" cy="23.957" r="23.957" fill="#69f0ae" data-name="Ellipse 45" transform="translate(172.968 176.221)"/><path fill="#fff" d="m186.527 196.981 8.983 8.235 12.727-18.714 4.495 3.743-17.221 22.458-12.727-14.222Z" data-name="Path 1026"/></g></g></svg>