<svg xmlns="http://www.w3.org/2000/svg" width="829" height="1081.391" data-name="Group 849"><path fill="rgba(255,255,255,0)" d="M0 0h829v1080H0z" data-name="Rectangle 152"/><g data-name="Group 633"><g data-name="Group 606"><g fill="#4a77f7" data-name="Group 581" opacity=".204"><path d="M157.647 966.749s86.278 178.92 368.3 86.519 134.866-266.011 7.985-203.298-241.239-15.9-241.239-15.9-77.18-45.232-130.559 18.993c0 0-39.143 41.86-4.487 113.686Z" data-name="Path 1070"/><path d="M323.024 786.848s-7.551 54.725 95.294 54.292 147.08-77.1 112.869-96.139c-29.966-16.674-67.737 11.738-109.583-1.063-53.74-16.442-99.871 9.749-98.58 42.91Z" data-name="Path 1071"/></g><g data-name="Group 584"><g data-name="Group 582" transform="translate(139.582 685.663)"><path fill="#6f7de0" d="M132.631 50.753H31.7a3.776 3.776 0 0 1-3.776-3.776 3.776 3.776 0 0 1 3.776-3.775h100.93a3.776 3.776 0 0 1 3.776 3.775 3.776 3.776 0 0 1-3.775 3.776Z" data-name="Path 1072"/><path fill="#fe4777" d="M597.503 339.535h-30.709a3.776 3.776 0 0 1-3.776-3.775 3.776 3.776 0 0 1 3.776-3.776h30.709a3.776 3.776 0 0 1 3.776 3.776 3.776 3.776 0 0 1-3.776 3.775Z" data-name="Path 1073"/><rect width="11.682" height="11.316" fill="#fe4777" data-name="Rectangle 133" rx="1.701" transform="translate(283.91)"/><rect width="11.682" height="11.316" fill="#fe4777" data-name="Rectangle 134" rx="1.701" transform="translate(0 353.501)"/></g></g><g data-name="Group 605"><g data-name="Group 587"><g data-name="Group 586" transform="translate(594.564 807.554)"><rect width="105.243" height="31.511" fill="#4a77f7" data-name="Rectangle 135" rx="1.792"/><g fill="none" stroke="#fff" stroke-miterlimit="10" stroke-width=".702" data-name="Group 585"><path d="M14.394 10.809h70.455" data-name="Line 102"/><path d="M14.394 19.259h24.713" data-name="Line 103"/></g></g><path fill="#4a77f7" d="M606.075 835.633v11.822l14.868-11.822Z" data-name="Path 1076"/></g><g data-name="Group 594"><g data-name="Group 592"><g data-name="Group 591"><g data-name="Group 590"><g data-name="Group 589"><g data-name="Group 588"><path fill="#4a77f7" d="M133.016 781.896h71.415a4.947 4.947 0 0 1 4.947 4.947v67.053a4.947 4.947 0 0 1-4.947 4.947h-69.837a6.525 6.525 0 0 1-6.525-6.529v-65.471a4.947 4.947 0 0 1 4.947-4.947Z" data-name="Rectangle 136"/></g></g></g></g></g><g data-name="Group 593"><path fill="#fff" d="m187.292 826.658-4.826-4.826a4.229 4.229 0 0 0-3.1-1.466 4.47 4.47 0 0 0-3.1 1.379l-2.757 2.759-.517-.259a8.111 8.111 0 0 1-.862-.43 29.766 29.766 0 0 1-7.153-6.55 15.592 15.592 0 0 1-2.24-3.534c.688-.6 1.292-1.292 1.895-1.895l.775-.777a4.2 4.2 0 0 0 0-6.376l-2.412-2.414a7.693 7.693 0 0 1-.775-.862l-1.639-1.637a4.464 4.464 0 0 0-3.1-1.378 4.269 4.269 0 0 0-3.1 1.378l-3.017 3.016a6.935 6.935 0 0 0-1.982 4.223 15.7 15.7 0 0 0 1.12 6.549 35.272 35.272 0 0 0 6.723 11.291 41.89 41.89 0 0 0 13.779 10.771 22.911 22.911 0 0 0 7.755 2.327h.6a6.843 6.843 0 0 0 5.171-2.241l.085-.085a13.042 13.042 0 0 1 1.552-1.552l1.12-1.12a4.323 4.323 0 0 0 .005-6.291Zm-1.982 4.481-1.034 1.035c-.6.516-1.12 1.12-1.724 1.723a4.094 4.094 0 0 1-3.1 1.294h-.43a18.162 18.162 0 0 1-6.723-2.069 39.252 39.252 0 0 1-12.841-10.082 37.41 37.41 0 0 1-6.291-10.429 10.673 10.673 0 0 1-1.034-5.343 3.646 3.646 0 0 1 1.207-2.5l2.929-2.929a1.807 1.807 0 0 1 1.207-.6 1.648 1.648 0 0 1 1.207.6l1.553 1.55a8.014 8.014 0 0 0 .86.86l2.414 2.414a2.024 2.024 0 0 1 .6 1.207 1.808 1.808 0 0 1-.6 1.205l-.775.777-2.156 2.154-.085.085a1.887 1.887 0 0 0-.517 2.154v.087a19.918 19.918 0 0 0 2.844 4.654 31.968 31.968 0 0 0 7.843 7.153 7.182 7.182 0 0 0 1.12.6 7.934 7.934 0 0 1 .862.432l.085.085a1.979 1.979 0 0 0 2.414-.43l3.017-3.016a1.421 1.421 0 0 1 2.327 0l4.826 4.826a1.633 1.633 0 0 1-.005 2.503Z" data-name="Path 1077"/></g></g><g data-name="Group 604"><g data-name="Group 601"><g data-name="Group 600"><g data-name="Group 599"><g data-name="Group 598"><g data-name="Group 597"><g data-name="Group 596"><g data-name="Group 595"><path fill="#fe4777" d="M514.667 680.655h65.546a4.54 4.54 0 0 1 4.54 4.54v61.539a4.54 4.54 0 0 1-4.54 4.54h-64.097a5.989 5.989 0 0 1-5.989-5.988v-60.091a4.54 4.54 0 0 1 4.54-4.54Z" data-name="Rectangle 137"/></g></g></g></g></g></g></g><g data-name="Group 603"><path fill="#fff" d="M556.178 710.194a9.061 9.061 0 1 0-9.061 9.061 9.062 9.062 0 0 0 9.061-9.061Zm-15.858 0a6.8 6.8 0 1 1 6.8 6.795 6.8 6.8 0 0 1-6.799-6.795Z" data-name="Path 1078"/><g data-name="Group 602"><path fill="#fff" d="M546.203 736.914a1.129 1.129 0 0 0 1.828 0c.092-.126.524-.716 1.178-1.647l6.686-10.342c3.107-5.3 5.948-11.127 5.948-14.731a14.725 14.725 0 1 0-29.45 0c0 3.5 2.68 9.1 5.68 14.272l6.957 10.805c.653.93 1.083 1.517 1.173 1.643Zm.914-39.179a12.458 12.458 0 0 1 12.459 12.459c0 5.419-8.281 18.221-12.459 24.112-4.177-5.891-12.459-18.693-12.459-24.112a12.46 12.46 0 0 1 12.459-12.459Z" data-name="Path 1079"/></g></g></g></g></g><g data-name="Group 632"><g data-name="Group 630"><g data-name="Group 607"><path fill="#4c53bb" d="M392.475 1081.391c-.608-1.821-31.4-144.473-40.733-187.693a18.674 18.674 0 0 0-15.313-14.53c-22.446-3.591-71.329-8.716-119.305 4.026-9.831 2.611-20.757 16.581-16.194 33.672l40.9 164.526Z" data-name="Path 1080"/><path fill="#6f7de0" d="M400.417 1080.488c-.608-1.823-31.67-145.59-41-188.81a18.674 18.674 0 0 0-15.313-14.53c-22.446-3.591-71.328-8.715-119.305 4.026a18.749 18.749 0 0 0-13.321 22.567l43.046 176.747Z" data-name="Path 1081"/></g><path d="M372.401 829.617s-31.435 2.641-41.183 26.589 0 29.9-14.62 38.741-46.746 33.153-15.332 81.154l163.923-15.829c-.624-.685 30.62-57.414-23.978-95.61Z" data-name="Path 1082"/><g data-name="Group 614"><g data-name="Group 612"><g data-name="Group 611"><path fill="#ffc4a7" d="m535.819 903.913-10.161 31.41 28.118 6.919 9.077-30.439Z" data-name="Path 1083"/><g data-name="Group 610"><g data-name="Group 609"><g fill="#ffc4a7" data-name="Group 608"><path d="M534.265 912.02s20.047 13.34 25.677 9.455c9.84-6.791 19.513-33.566 19.513-33.566s-38.024-17.593-37.7-16.991-7.49 41.102-7.49 41.102Z" data-name="Path 1084"/><path d="M534.265 912.02c-4.13-3.058-5.9-11.08-8.107-34.1a3.949 3.949 0 0 1 3.318-4.515 4.351 4.351 0 0 1 4.694 2.335l8.584 17.476Z" data-name="Path 1085"/><path d="m536.773 887.523 9.177-33.009a4.227 4.227 0 0 1 5.119-2.986 3.64 3.64 0 0 1 2.687 4.245l-4.754 24.729Z" data-name="Path 1086"/><path d="m551.063 876.144 10.889-23.255a4.21 4.21 0 0 1 5.383-2.18 3.627 3.627 0 0 1 2.076 4.466l-8.8 27.147Z" data-name="Path 1087"/><path d="m560.376 883.915 13.285-22.66a4.611 4.611 0 0 1 6.036-1.823 4.016 4.016 0 0 1 1.681 5.442l-10.843 21.52Z" data-name="Path 1088"/><path d="m579.456 887.908 10.129-13.737a3.262 3.262 0 0 0-1.271-4.461 3.724 3.724 0 0 0-4.632.989l-13.147 15.69Z" data-name="Path 1089"/></g></g><path fill="none" stroke="#e5967a" stroke-linecap="round" stroke-linejoin="round" stroke-width="1.064" d="M538.785 885.141s13.738-.435 13.813 17.836" data-name="Path 1090"/></g></g><path fill="#fe4777" d="M432.751 922.639c19.984 11.91 63.291 57.276 63.291 57.276l27.8-61.023 46.776 8.611s-30.963 80.365-46.389 105.733c-8.033 13.213-23.337 21.338-41.131 12.009l-49.857-30.4-.492-92.2" data-name="Path 1091"/></g><g data-name="Group 613"><path fill="#fe4777" d="M390.477 910.458s-62.958 4.7-74.12 46.409-9.4 123.952-9.4 123.952h150.977l-4.7-126.3s-3.326-41.711-62.757-44.061Z" data-name="Path 1092"/><path fill="none" stroke="#e0225d" stroke-miterlimit="10" d="m455.995 1028.717-4.016-56.233" data-name="Line 104"/></g></g><g data-name="Group 615"><path fill="#fff" d="m476.589 1081.059 60.891-112.4a5.49 5.49 0 0 1 4.828-2.876h143.9a4.09 4.09 0 0 1 3.651 5.936l-55.278 109.34Z" data-name="Path 1093"/><path fill="#fff" d="M381.927 1067.349H495.81v13.71H381.927z" data-name="Rectangle 138"/><path fill="#ededed" d="M604.524 1025.829a12.062 12.062 0 1 1-12.061-12.061 12.062 12.062 0 0 1 12.061 12.061Z" data-name="Path 1094"/></g><g data-name="Group 624"><g data-name="Group 616"><path fill="#4040eb" d="M411.195 850.19c-.39 11.152 8.454 20.513 22.6 21.007 10 .35 13.238-8.587 13.628-19.739s-7.4-20.478-17.4-20.827-18.436 8.404-18.828 19.559Z" data-name="Path 1096"/><path fill="#2a3596" d="M416.387 850.363c-.39 11.152 7.4 20.476 17.406 20.826s18.429-8.407 18.819-19.559-7.4-20.476-17.406-20.826-18.429 8.412-18.819 19.559Z" data-name="Path 1097"/></g><g data-name="Group 620"><path d="M397.61 797.592c1.8-3.154-.514-9.056-.514-9.056-17.776 0-33.114 5.691-41.951 21.932-13 23.889-3.559 60.829 27.028 72.068 29.35 10.785 13.718-81.932 13.718-81.932Z" data-name="Path 1098"/><path fill="#ffc4a7" d="m414.375 888.43-1.965 28.784c-.668 10.852-7.715 16.242-18.4 15.5-9.118-.633-17.356-5.932-17.856-15.054l2.585-46.362Z" data-name="Path 1099"/><path fill="#e5967a" d="M413.3 905.488s-21.122-3.475-34.608-29.5l35.967 9.033Z" data-name="Path 1100"/><path fill="#ffc4a7" d="M405.153 892.179c18.248.691 33.16-13.077 33.705-27.982l1.076-35.177a34.658 34.658 0 0 0-32.239-35.836c-14.031-.976-39.5 19.86-40.341 31.931l-.556 28.3c-.431 21.89 20.486 38.09 38.355 38.764Z" data-name="Path 1101"/><g data-name="Group 617"><path fill="#f7de9e" d="M397.019 788.578c.09-.012.167-.028.258-.04Z" data-name="Path 1102"/></g><g data-name="Group 618"><path fill="#ffc4a7" d="M349.75 849.389a14.213 14.213 0 1 0 15.164-13.186 14.208 14.208 0 0 0-15.164 13.186Z" data-name="Path 1103"/><path fill="none" stroke="#20181f" stroke-linecap="round" stroke-linejoin="round" stroke-width="1.277" d="M368.593 854.933s.715-10.273-9.227-9.341" data-name="Path 1104"/></g><g data-name="Group 619"><path fill="none" stroke="#0c0b0c" stroke-linecap="round" stroke-linejoin="round" stroke-width="1.277" d="m418.997 858.744 1.126 9.287-4.811.177" data-name="Path 1105"/><path d="M399.069 839.805s9.582-1.3 9.433 2.143c0 0-.174 2.332-8.524 3.321s-10.474.583-11.077-1.56 5.694-3.601 10.168-3.904Z" data-name="Path 1106"/><path d="M429.909 840.036s-7.595-1.138-8.017 2.062c0 0-.228 2.169 6.413 3.03s8.746.2 9.264-1.53c.588-1.965-4.066-3.312-7.66-3.562Z" data-name="Path 1107"/><path d="M397.338 853.869a3.081 3.081 0 1 0 3.18-2.976 3.08 3.08 0 0 0-3.18 2.976Z" data-name="Path 1108"/><path d="M425.746 853.869a3.08 3.08 0 1 0 3.179-2.976 3.078 3.078 0 0 0-3.179 2.976Z" data-name="Path 1109"/><path fill="#f7f7f7" d="M401.325 873.552h19.719s-.914 6.8-11.249 6.3a8.989 8.989 0 0 1-8.47-6.3Z" data-name="Path 1110"/></g><path d="M364.914 836.202s28.673 10.14 48.841-27.926c0 0 21.939 4.684 26.179 22.6 0 0 11.435-43.794-44.138-43.846l-31.865 19.287Z" data-name="Path 1111"/><path fill="#ffc4a7" d="m382.095 928.694 26.815 17.034s2.911-18.688 3.5-28.452Z" data-name="Path 1112"/></g><g data-name="Group 623"><path fill="#2a3596" d="m419.991 790.8.065 1.868s-22.969-1.7-35.717 10.149c-14.21 13.206-18.109 33.771-18.109 33.771l-4.948-.467 6.22-32.6 11.6-8.418 17.252-6.5 11.525-1.515Z" data-name="Path 1113"/><g data-name="Group 621" transform="translate(335.527 830.907)"><path fill="#2a3596" d="M42.125 20.014c.39 11.152-8.453 20.513-22.6 21.008-10 .35-13.238-8.589-13.628-19.741S13.297.805 23.297.455s18.437 8.407 18.828 19.559Z" data-name="Path 1114"/><ellipse cx="18.123" cy="20.205" fill="#4c53bb" data-name="Ellipse 69" rx="18.123" ry="20.205" transform="rotate(-2 36.36 .637)"/></g><path fill="#4c53bb" d="M354.428 834.04a77.23 77.23 0 0 1 5.487-24.795c6.577-15.852 21.9-25.247 39.069-25.272q1.966-.005 4.126.092c4.952.228 10.149 1.306 14.132 4.257a17.583 17.583 0 0 1 2.75 2.477s-22.058-3.045-34.71 6.763c-14.257 11.048-20.576 28.22-21.969 40.148Z" data-name="Path 1115"/><g data-name="Group 622"><path fill="none" stroke="#0c0b0c" stroke-linecap="round" stroke-linejoin="round" stroke-width="1.277" d="M369.528 866.021a20.078 20.078 0 0 0 17.814 6.445" data-name="Path 1116"/><path fill="#0c0b0c" d="M390.105 871.939a2.055 2.055 0 1 1-2.056-2.054 2.056 2.056 0 0 1 2.056 2.054Z" data-name="Path 1117"/></g></g></g><g data-name="Group 629"><g data-name="Group 628"><g data-name="Group 626"><g data-name="Group 625"><path fill="#ffc4a7" d="m409.381 1060.59-29.165-4.015.814 24.473 22.566-.01Z" data-name="Path 1118"/></g><path fill="#ffc4a7" d="M405.975 1060.26c-.9-.373 62.7-27.132 57.973 20.744h-63.834Z" data-name="Path 1119"/></g><g data-name="Group 627"><path fill="#fe4777" d="m294.019 1038.07 93.705 2.821-1.761 40.5-97.425-.6a21.537 21.537 0 0 1-17.168-29.253 21.537 21.537 0 0 1 22.649-13.468Z" data-name="Path 1120"/><path fill="none" stroke="#e0225d" stroke-miterlimit="10" d="m385.995 1057.021 1.731-16.131-53.835-1.771 26.293-53.369" data-name="Path 1121"/><path fill="none" stroke="#e0225d" stroke-miterlimit="10" d="m335.564 1039.118-28.47-.345" data-name="Line 105"/></g></g><path fill="#fe4777" d="M366.796 962.215s-23.859 60.033-58.083 108.421c-3.837 5.422-14.508 8.119-21.146 7.833-14.98-.646-21.328-16.783-15.668-29.915 0 0 27.535-86.537 58.689-114.7.786-.716 36.208 28.361 36.208 28.361Z" data-name="Path 1122"/></g></g></g></g></svg>