<svg width="63" height="45" viewBox="0 0 63 45" fill="none" xmlns="http://www.w3.org/2000/svg">
<path d="M3.0617 22.7629L0 25.8246V12.1892L12.1892 0H25.7363L22.6746 3.0617H13.4589L3.0617 13.4571V22.7629Z" fill="#A38FFF"/>
<path d="M59.274 21.3078L62.3357 18.2461V31.8815L50.1465 44.0707H27.3872L30.4489 41.009H48.8768L59.274 30.6136V21.3078Z" fill="#A38FFF"/>
<path d="M47.1056 37.4984H6.57227V15.2164L15.2135 6.5752H55.7612V28.8428L47.1056 37.4984Z" fill="#DDDDDD"/>
<path d="M9.27637 34.7966V16.3345L16.3345 9.27637H53.0623V27.724L45.9898 34.7966H9.27637Z" fill="white"/>
<path d="M45.4257 20.3387H17.9257C17.5224 20.3387 17.1968 19.9515 17.1968 19.476V19.3607C17.1968 18.8835 17.5239 18.498 17.9257 18.498H45.4257C45.8289 18.498 46.1545 18.8853 46.1545 19.3607V19.476C46.1561 19.9515 45.8289 20.3387 45.4257 20.3387Z" fill="black"/>
<path d="M43.2505 25.4861H20.0995C19.6962 25.4861 19.3706 25.0989 19.3706 24.6235V24.5082C19.3706 24.0309 19.6978 23.6455 20.0995 23.6455H43.252C43.6553 23.6455 43.9809 24.0327 43.9809 24.5082V24.6235C43.9809 25.0989 43.6537 25.4861 43.2505 25.4861Z" fill="black"/>
<path d="M45.088 12.165L44.2347 12.165C44.0785 12.165 43.953 12.0396 43.953 11.8834L43.953 11.0301C43.953 10.8739 44.0785 10.7485 44.2347 10.7485L45.088 10.7485C45.2442 10.7485 45.3696 10.8739 45.3696 11.0301L45.3696 11.8834C45.3696 12.0396 45.2422 12.165 45.088 12.165Z" fill="#BCAFFD"/>
<path d="M45.088 14.2012L44.2347 14.2012C44.0785 14.2012 43.953 14.0758 43.953 13.9195L43.953 13.0663C43.953 12.91 44.0785 12.7846 44.2347 12.7846L45.088 12.7846C45.2442 12.7846 45.3696 12.91 45.3696 13.0663L45.3696 13.9195C45.3696 14.0758 45.2422 14.2012 45.088 14.2012Z" fill="#BCAFFD"/>
<path d="M43.0508 14.2012L42.1976 14.2012C42.0413 14.2012 41.9159 14.0758 41.9159 13.9195L41.9159 13.0663C41.9159 12.91 42.0413 12.7846 42.1976 12.7846L43.0508 12.7846C43.2071 12.7846 43.3325 12.91 43.3325 13.0663L43.3325 13.9195C43.3346 14.0758 43.2071 14.2012 43.0508 14.2012Z" fill="#BCAFFD"/>
<path d="M47.1221 12.165L46.2689 12.165C46.1126 12.165 45.9872 12.0396 45.9872 11.8834L45.9872 11.0301C45.9872 10.8739 46.1126 10.7485 46.2689 10.7485L47.1221 10.7485C47.2784 10.7485 47.4038 10.8739 47.4038 11.0301L47.4038 11.8834C47.4038 12.0396 47.2763 12.165 47.1221 12.165Z" fill="#BCAFFD"/>
<path d="M49.1602 12.165L48.307 12.165C48.1507 12.165 48.0253 12.0396 48.0253 11.8834L48.0253 11.0301C48.0253 10.8739 48.1507 10.7485 48.307 10.7485L49.1602 10.7485C49.3165 10.7485 49.4419 10.8739 49.4419 11.0301L49.4419 11.8834C49.4419 12.0396 49.3165 12.165 49.1602 12.165Z" fill="#BCAFFD"/>
<path d="M51.1944 12.165L50.3412 12.165C50.1849 12.165 50.0595 12.0396 50.0595 11.8834L50.0595 11.0301C50.0595 10.8739 50.1849 10.7485 50.3412 10.7485L51.1944 10.7485C51.3507 10.7485 51.4761 10.8739 51.4761 11.0301L51.4761 11.8834C51.4761 12.0396 51.3507 12.165 51.1944 12.165Z" fill="#BCAFFD"/>
<path d="M47.1221 14.2012L46.2689 14.2012C46.1126 14.2012 45.9872 14.0758 45.9872 13.9195L45.9872 13.0663C45.9872 12.91 46.1126 12.7846 46.2689 12.7846L47.1221 12.7846C47.2784 12.7846 47.4038 12.91 47.4038 13.0663L47.4038 13.9195C47.4038 14.0758 47.2763 14.2012 47.1221 14.2012Z" fill="#BCAFFD"/>
<path d="M49.1602 14.2012L48.307 14.2012C48.1507 14.2012 48.0253 14.0758 48.0253 13.9195L48.0253 13.0663C48.0253 12.91 48.1507 12.7846 48.307 12.7846L49.1602 12.7846C49.3165 12.7846 49.4419 12.91 49.4419 13.0663L49.4419 13.9195C49.4419 14.0758 49.3165 14.2012 49.1602 14.2012Z" fill="#BCAFFD"/>
<path d="M51.1944 14.2012L50.3412 14.2012C50.1849 14.2012 50.0595 14.0758 50.0595 13.9195L50.0595 13.0663C50.0595 12.91 50.1849 12.7846 50.3412 12.7846L51.1944 12.7846C51.3507 12.7846 51.4761 12.91 51.4761 13.0663L51.4761 13.9195C51.4761 14.0758 51.3507 14.2012 51.1944 14.2012Z" fill="#BCAFFD"/>
<path d="M47.1221 16.2383L46.2689 16.2383C46.1126 16.2383 45.9872 16.1129 45.9872 15.9566L45.9872 15.1034C45.9872 14.9471 46.1126 14.8217 46.2689 14.8217L47.1221 14.8217C47.2784 14.8217 47.4038 14.9471 47.4038 15.1034L47.4038 15.9566C47.4038 16.1108 47.2763 16.2383 47.1221 16.2383Z" fill="#BCAFFD"/>
<path d="M49.1602 16.2383L48.307 16.2383C48.1507 16.2383 48.0253 16.1129 48.0253 15.9566L48.0253 15.1034C48.0253 14.9471 48.1507 14.8217 48.307 14.8217L49.1602 14.8217C49.3165 14.8217 49.4419 14.9471 49.4419 15.1034L49.4419 15.9566C49.4419 16.1108 49.3165 16.2383 49.1602 16.2383Z" fill="#BCAFFD"/>
<path d="M17.1362 32.0186L17.9894 32.0186C18.1457 32.0186 18.2711 32.144 18.2711 32.3002L18.2711 33.1535C18.2711 33.3097 18.1457 33.4351 17.9894 33.4351L17.1362 33.4351C16.9799 33.4351 16.8545 33.3097 16.8545 33.1535L16.8545 32.3002C16.8545 32.144 16.982 32.0186 17.1362 32.0186Z" fill="#BCAFFD"/>
<path d="M17.1362 29.9824L17.9894 29.9824C18.1457 29.9824 18.2711 30.1078 18.2711 30.2641L18.2711 31.1173C18.2711 31.2736 18.1457 31.399 17.9894 31.399L17.1362 31.399C16.9799 31.399 16.8545 31.2736 16.8545 31.1173L16.8545 30.2641C16.8545 30.1078 16.982 29.9824 17.1362 29.9824Z" fill="#BCAFFD"/>
<path d="M19.1733 29.9824L20.0265 29.9824C20.1828 29.9824 20.3082 30.1078 20.3082 30.2641L20.3082 31.1173C20.3082 31.2736 20.1828 31.399 20.0265 31.399L19.1733 31.399C19.017 31.399 18.8916 31.2736 18.8916 31.1173L18.8916 30.2641C18.8896 30.1078 19.017 29.9824 19.1733 29.9824Z" fill="#BCAFFD"/>
<path d="M15.102 32.0186L15.9552 32.0186C16.1115 32.0186 16.2369 32.144 16.2369 32.3002L16.2369 33.1535C16.2369 33.3097 16.1115 33.4351 15.9552 33.4351L15.102 33.4351C14.9457 33.4351 14.8203 33.3097 14.8203 33.1535L14.8203 32.3002C14.8203 32.144 14.9478 32.0186 15.102 32.0186Z" fill="#BCAFFD"/>
<path d="M13.0644 32.0186L13.9176 32.0186C14.0739 32.0186 14.1993 32.144 14.1993 32.3002L14.1993 33.1535C14.1993 33.3097 14.0739 33.4351 13.9176 33.4351L13.0644 33.4351C12.9081 33.4351 12.7827 33.3097 12.7827 33.1535L12.7827 32.3002C12.7827 32.144 12.9081 32.0186 13.0644 32.0186Z" fill="#BCAFFD"/>
<path d="M11.0297 32.0186L11.883 32.0186C12.0392 32.0186 12.1646 32.144 12.1646 32.3002L12.1646 33.1535C12.1646 33.3097 12.0392 33.4351 11.883 33.4351L11.0297 33.4351C10.8735 33.4351 10.748 33.3097 10.748 33.1535L10.748 32.3002C10.748 32.144 10.8735 32.0186 11.0297 32.0186Z" fill="#BCAFFD"/>
<path d="M15.102 29.9824L15.9552 29.9824C16.1115 29.9824 16.2369 30.1078 16.2369 30.2641L16.2369 31.1173C16.2369 31.2736 16.1115 31.399 15.9552 31.399L15.102 31.399C14.9457 31.399 14.8203 31.2736 14.8203 31.1173L14.8203 30.2641C14.8203 30.1078 14.9478 29.9824 15.102 29.9824Z" fill="#BCAFFD"/>
<path d="M13.0644 29.9824L13.9176 29.9824C14.0739 29.9824 14.1993 30.1078 14.1993 30.2641L14.1993 31.1173C14.1993 31.2736 14.0739 31.399 13.9176 31.399L13.0644 31.399C12.9081 31.399 12.7827 31.2736 12.7827 31.1173L12.7827 30.2641C12.7827 30.1078 12.9081 29.9824 13.0644 29.9824Z" fill="#BCAFFD"/>
<path d="M11.0297 29.9824L11.883 29.9824C12.0392 29.9824 12.1646 30.1078 12.1646 30.2641L12.1646 31.1173C12.1646 31.2736 12.0392 31.399 11.883 31.399L11.0297 31.399C10.8735 31.399 10.748 31.2736 10.748 31.1173L10.748 30.2641C10.748 30.1078 10.8735 29.9824 11.0297 29.9824Z" fill="#BCAFFD"/>
<path d="M15.102 27.9453L15.9552 27.9453C16.1115 27.9453 16.2369 28.0707 16.2369 28.227L16.2369 29.0802C16.2369 29.2365 16.1115 29.3619 15.9552 29.3619L15.102 29.3619C14.9457 29.3619 14.8203 29.2365 14.8203 29.0802L14.8203 28.227C14.8203 28.0728 14.9478 27.9453 15.102 27.9453Z" fill="#BCAFFD"/>
<path d="M13.0644 27.9453L13.9176 27.9453C14.0739 27.9453 14.1993 28.0707 14.1993 28.227L14.1993 29.0802C14.1993 29.2365 14.0739 29.3619 13.9176 29.3619L13.0644 29.3619C12.9081 29.3619 12.7827 29.2365 12.7827 29.0802L12.7827 28.227C12.7827 28.0728 12.9081 27.9453 13.0644 27.9453Z" fill="#BCAFFD"/>
</svg>
